<svg width="300" height="226" viewBox="0 0 300 226" fill="none" xmlns="http://www.w3.org/2000/svg">
<path d="M194.896 167.004H234.763V66.1451H194.896V167.004ZM129.654 0V167.004H169.522V40.5615H260.132V167.004H300V0H129.654Z" fill="#FFB739"/>
<path d="M0 167.004H39.8674V66.1451H0V167.004ZM0 0V40.5615H65.2415V167.004H104.881L105.109 0H0Z" fill="#FFB739"/>
<path d="M16.1949 205.434C15.4259 203.158 14.1656 199.471 13.8034 198.105C13.4363 199.471 12.3149 203.108 11.4962 205.474L8.96573 212.758H18.7205L16.1949 205.434ZM22.8387 224.599L20.1693 217.045H7.53679L4.92196 224.599H0.00488281L11.3821 192.732H16.3934L27.8996 224.599H22.8387Z" fill="white"/>
<path d="M63.6089 224.619V207.771C63.6089 205.86 63.6535 203.083 63.7031 202.177C63.3409 203.088 62.4379 205.364 61.6688 207.18L53.993 225.115L46.4065 207.18C45.6424 205.359 44.7345 203.083 44.3772 202.177C44.4219 203.088 44.4666 205.865 44.4666 207.771V224.619H40.001V192.753H44.8783L51.9686 209.727C52.7377 211.553 53.7301 213.874 54.137 215.195C54.5835 213.869 55.4914 211.598 56.2555 209.727L63.202 192.753H68.258V224.619H63.6089Z" fill="white"/>
<path d="M111.44 225.119C109.307 225.139 107.196 224.689 105.254 223.801C103.312 222.913 101.586 221.608 100.196 219.977L103.58 216.655C104.628 217.808 105.896 218.737 107.308 219.387C108.719 220.037 110.246 220.394 111.797 220.437C116.223 220.437 118.346 218.886 118.346 215.789C118.346 213.328 116.491 212.103 111.206 210.507C104.528 208.506 101.318 206.82 101.318 201.132C101.377 199.842 101.699 198.578 102.265 197.419C102.831 196.261 103.627 195.233 104.605 194.399C105.584 193.566 106.722 192.945 107.949 192.575C109.176 192.206 110.466 192.096 111.737 192.252C113.662 192.226 115.572 192.597 117.35 193.341C119.128 194.085 120.736 195.187 122.077 196.579L118.733 199.991C117.796 198.98 116.653 198.184 115.384 197.658C114.114 197.131 112.747 196.886 111.375 196.939C107.674 196.939 106.091 198.761 106.091 200.902C106.091 203.128 107.535 204.223 113.003 205.859C119.234 207.77 123.12 209.776 123.12 215.464C123.12 221.152 119.507 225.114 111.425 225.114" fill="white"/>
<path d="M148.018 212.008V224.619H143.275V212.008L131.942 192.753H137.49L142.417 201.537C143.503 203.493 145.121 206.68 145.661 207.866C146.202 206.685 147.785 203.633 148.916 201.587L153.878 192.757H159.336L148.018 212.008Z" fill="white"/>
<path d="M179.847 225.119C177.714 225.139 175.603 224.689 173.661 223.801C171.719 222.913 169.993 221.608 168.604 219.977L171.992 216.655C173.041 217.809 174.308 218.738 175.72 219.388C177.131 220.038 178.658 220.394 180.209 220.437C184.635 220.437 186.758 218.886 186.758 215.789C186.758 213.328 184.908 212.103 179.619 210.507C172.94 208.506 169.73 206.82 169.73 201.132C169.789 199.842 170.111 198.578 170.677 197.419C171.243 196.261 172.04 195.233 173.018 194.399C173.996 193.566 175.134 192.945 176.361 192.575C177.589 192.206 178.878 192.096 180.149 192.252C182.074 192.226 183.984 192.596 185.762 193.34C187.54 194.084 189.149 195.186 190.49 196.579L187.15 199.991C186.213 198.98 185.07 198.184 183.801 197.658C182.531 197.131 181.164 196.886 179.792 196.939C176.091 196.939 174.508 198.761 174.508 200.902C174.508 203.128 175.952 204.223 181.42 205.859C187.647 207.77 191.537 209.776 191.537 215.464C191.537 221.152 187.924 225.114 179.842 225.114" fill="white"/>
<path d="M216.738 197.429V224.604H211.994V197.429H202.785V192.737H225.946V197.429H216.738Z" fill="white"/>
<path d="M238.286 224.619V192.753H258.629V197.395H243.005V205.274H252.085V209.922H243.005V219.982H259.304V224.624L238.286 224.619Z" fill="white"/>
<path d="M295.351 224.619V207.771C295.351 205.86 295.396 203.083 295.445 202.177C295.083 203.088 294.18 205.364 293.411 207.18L285.735 225.115L278.149 207.18C277.385 205.359 276.477 203.083 276.114 202.177C276.159 203.088 276.204 205.865 276.204 207.771V224.619H271.738V192.753H276.611L283.696 209.727C284.465 211.553 285.457 213.874 285.864 215.195C286.316 213.869 287.214 211.598 287.983 209.727L294.929 192.753H299.985V224.619H295.351Z" fill="white"/>
</svg>
