<svg width="343" height="622" viewBox="0 0 343 622" fill="none" xmlns="http://www.w3.org/2000/svg">
<path d="M98.0578 568.613L85.0304 598.732L63.7908 587.876L76.7522 558.334L98.0578 568.613Z" fill="#FCC9A7"/>
<path d="M92.1872 596.974C92.1872 595.165 90.5711 593.991 88.9551 594.657C85.7889 595.959 80.5783 597.069 74.3449 594.372C67.8807 591.579 66.6934 586.978 66.6604 583.963C66.6604 582.376 65.4731 581.17 63.989 581.392L16.5954 587.961C13.7261 588.374 11.0217 589.961 9.1088 592.436C7.29486 594.753 8.15235 598.116 10.6919 598.878L81.4355 619.569C84.2058 620.394 87.2401 618.458 88.0646 615.348L92.0553 600.116C92.1212 599.862 92.1542 599.608 92.1542 599.354L92.1872 596.974Z" fill="#1F252A"/>
<path d="M290.104 495.556L319.786 511.297L306.297 530.433L277.175 514.819L290.104 495.556Z" fill="#FCC9A7"/>
<path d="M318.732 504.252C316.852 504.061 315.467 505.489 315.961 507.076C316.951 510.218 317.544 515.359 314.081 521.008C310.487 526.878 305.605 527.545 302.472 527.196C300.823 527.037 299.471 528.021 299.504 529.449L301.12 575.496C301.219 578.289 302.571 581.05 304.913 583.144C307.09 585.112 310.684 584.699 311.74 582.319L340.797 516.914C341.951 514.343 340.269 511.233 337.169 510.123L321.865 504.632C321.601 504.537 321.337 504.474 321.073 504.442L318.732 504.252Z" fill="#1F252A"/>
<path d="M113.756 277.679L125.201 348.32L183.049 448.379L282.651 531.715L305.869 492.205L226.88 421.31L180.542 278.884L113.756 277.679Z" fill="#092330"/>
<path d="M207.751 273.637C207.751 273.637 219.261 294.582 201.386 328.032L145.879 429.964L103.565 584.448L61.5474 570.326L91.7248 414.096L145.22 292.171L113.756 277.668L207.751 273.637Z" fill="#0C2C40"/>
<path d="M86.7444 74.8821C94.0661 82.5937 106.5 83.1331 114.481 76.1198C122.496 69.0747 123.056 57.1107 115.767 49.3992C108.446 41.6876 96.045 41.1481 87.9976 48.1615C79.9833 55.2383 79.4226 67.1706 86.7444 74.8821Z" fill="#FCC9A7"/>
<path d="M71.0455 84.586L88.1296 64.7835L101.751 77.9534L85.722 96.8355L71.0455 84.586Z" fill="#FCC9A7"/>
<path d="M109.6 38.247L93.9338 58.4302C91.889 61.0642 91.955 64.7137 94.0988 67.2525L106.796 82.3265C109.765 85.849 115.305 85.8808 118.307 82.4217L136.017 62.1432C138.458 59.3506 138.326 55.225 135.72 52.5593L120.978 37.5806C117.812 34.3753 112.37 34.661 109.6 38.247Z" fill="#1C2226"/>
<path d="M125.794 109.39L63.6912 139.38L97.7933 88.7629L75.3004 70.0394L4.19384 163.784C-2.27038 171.844 0.236162 183.586 9.50374 188.505C14.22 191.012 19.8927 191.266 24.8398 189.171L116.922 153.978L125.794 109.39Z" fill="#F7ECE7"/>
<path d="M103.564 138.18C103.564 138.18 114.547 221.039 113.755 277.686C113.755 277.686 146.703 291.649 216.556 271.243L199.274 117.171L165.634 106.286L125.793 109.396L103.564 138.18Z" fill="#F7ECE7"/>
<path d="M137.072 101.319L137.93 106.714C137.996 107.095 137.864 107.508 137.567 107.793L128.959 116.584C128.168 117.377 126.782 116.933 126.65 115.854L125.76 109.38C125.694 108.967 125.859 108.555 126.189 108.269L134.797 100.558C135.621 99.8595 136.94 100.272 137.072 101.319Z" fill="#FCF3F0"/>
<path d="M148.582 115.273C158.806 114.48 166.425 105.816 165.6 95.9784L163.127 67.1636L126.056 70.0832L133.708 109.91C134.928 114.988 138.325 116.067 148.582 115.273Z" fill="#FCC9A7"/>
<path d="M164.381 77.2362C164.381 77.2362 156.4 99.0697 140.206 96.3722C125.332 93.8969 126.057 70.0642 126.057 70.0642L164.381 77.2362Z" fill="#F4BE9A"/>
<path d="M142.778 88.4446L146.076 88.0958C162.501 86.3821 174.407 72.165 172.626 56.3611L170.614 38.3358C168.833 22.5318 154.058 11.0756 137.633 12.7892L134.335 13.1383C117.911 14.852 106.005 29.0692 107.786 44.8732L109.798 62.8985C111.579 78.7341 126.354 90.1583 142.778 88.4446Z" fill="#FCC9A7"/>
<path d="M142.778 88.4446L146.076 88.0958C162.501 86.3821 174.407 72.165 172.626 56.3611L170.614 38.3358C168.833 22.5318 154.058 11.0756 137.633 12.7892L134.335 13.1383C117.911 14.852 106.005 29.0692 107.786 44.8732L109.798 62.8985C111.579 78.7341 126.354 90.1583 142.778 88.4446Z" fill="#FCC9A7"/>
<path d="M171.966 50.6508C169.724 50.4286 160.324 57.2833 157.884 54.3003C154.52 50.1748 151.452 42.6536 155.806 34.8469C156.531 33.5458 156.729 32.0225 156.268 30.5944C155.41 28.0239 153.101 25.0408 146.736 27.1988C136.545 30.6579 113.623 41.7651 106.994 25.8659C98.6171 5.84131 164.513 11.4266 164.513 11.4266L179.519 32.3081L173.088 62.0753L171.966 50.6508Z" fill="#1C2226"/>
<path d="M162.798 53.6659C163.425 59.3147 168.702 63.4085 174.572 62.7738C180.443 62.1708 184.697 57.0932 184.038 51.4445C183.411 45.7957 178.134 41.7019 172.264 42.3366C166.393 42.9713 162.171 48.0171 162.798 53.6659Z" fill="#FCC9A7"/>
<path d="M145.218 121.381L153.628 246.13L137.963 260.284L128.662 246.575L137.963 118.906L145.218 121.381Z" fill="#0C2C40"/>
<path d="M132.686 112.789L133.972 111.076L133.643 109.584H152.178L153.629 114.249L141.294 124.721L132.686 112.789Z" fill="#0C2C40"/>
<path d="M164.413 94.2879L146.867 105.776C144.888 107.077 144.625 109.806 146.34 111.425L160.126 124.468C161.676 125.927 164.215 125.864 165.666 124.277L179.551 109.267C180.903 107.807 180.838 105.554 179.386 104.189L169.228 94.637C167.942 93.4628 165.93 93.3041 164.413 94.2879Z" fill="#FCF3F0"/>
<path d="M90.0758 100.222L63.8231 84.9893" stroke="#EADDD8" stroke-width="0.7599" stroke-miterlimit="10" stroke-linecap="round" stroke-linejoin="round"/>
<path d="M137.898 219.851L128.697 314.515C128.334 318.07 130.873 321.307 134.534 322.006L247.361 342.76C251.517 343.522 255.442 340.729 255.903 336.699L266.226 246.73C266.622 243.239 264.248 240.002 260.686 239.177L146.737 213.758C142.483 212.774 138.327 215.662 137.898 219.851Z" fill="#AFAFAF"/>
<path d="M145.913 221.533L136.711 316.197C136.381 319.752 138.888 322.989 142.548 323.688L255.376 344.442C259.531 345.204 263.456 342.411 263.918 338.381L274.241 248.412C274.636 244.921 272.262 241.684 268.7 240.859L154.751 215.408C150.464 214.456 146.308 217.344 145.913 221.533Z" fill="#D1D1D1"/>
<path d="M188.49 308.668C179.42 300.671 165.305 301.273 156.993 310C148.682 318.727 149.309 332.31 158.379 340.307C167.448 348.304 181.564 347.701 189.875 338.974C198.186 330.215 197.56 316.665 188.49 308.668Z" fill="#FCC9A7"/>
<path d="M205.211 296.161L187.995 320.216L171.241 306.634L187.335 283.753L205.211 296.161Z" fill="#FCC9A7"/>
<path d="M199.308 117.171C199.308 117.171 224.539 119.614 231.86 159.314L260.883 217.325C261.675 219.864 262.203 222.466 262.467 225.068L201.419 309.451L173.88 293.742L223.252 217.579L193.273 171.913L199.308 117.171Z" fill="#F7ECE7"/>
<path d="M182.85 282.34L210.653 296.684" stroke="#EADDD8" stroke-width="0.7599" stroke-miterlimit="10" stroke-linecap="round" stroke-linejoin="round"/>
<path d="M207.949 194.292L190.172 164.525" stroke="#EADDD8" stroke-width="0.7599" stroke-miterlimit="10" stroke-linecap="round" stroke-linejoin="round"/>
<path d="M113.789 32.9406C101.19 27.4505 103.828 13.2968 106.698 8.82225C106.698 8.82225 107.258 16.7877 112.898 14.9471C112.898 14.9471 112.14 3.07827 128.663 0C128.663 0 122.561 10.6629 144.296 8.63184C170.977 6.1248 172.527 22.373 171.043 42.5562L162.864 36.9075L156.532 22.849H134.929L113.789 32.9406Z" fill="#1C2226"/>
</svg>
