<svg width="767" height="75" viewBox="0 0 767 75" fill="none" xmlns="http://www.w3.org/2000/svg">
<path fill-rule="evenodd" clip-rule="evenodd" d="M137.586 27.9949C137.443 28.9437 137.081 29.8464 136.53 30.6319C135.978 31.4173 135.252 32.0638 134.408 32.5202C134.174 32.6499 133.929 32.7587 133.676 32.8454C133.997 37.1036 127.23 38.6521 123.584 37.6379L124.939 42.3761L121.455 42.5L115.358 33.7706C113.302 34.3513 110.875 34.63 109.307 32.1137C109.165 31.8826 109.035 31.6434 108.92 31.3976C108.521 31.4789 108.115 31.5203 107.708 31.5215C106.547 31.5215 104.611 31.1731 103.628 30.4917C102.849 29.9749 102.23 29.2491 101.844 28.3975C99.7493 28.6839 97.9724 28.1923 96.8111 26.9767C95.34 25.4631 94.922 22.9624 95.6884 20.2797C96.6988 16.6989 99.7725 12.6652 105.881 11.1515C106.411 10.4928 107.045 9.92525 107.759 9.47147C111.595 7.0133 117.824 6.80039 122.55 9.13468C124.383 8.79333 126.274 8.97442 128.009 9.65729C131.407 10.9309 133.877 13.5942 134.342 16.3002C135.262 16.777 136.015 17.5222 136.502 18.437C137.52 20.3494 137.663 22.2656 136.978 23.814C137.623 25.1066 137.837 26.5722 137.586 27.9949ZM135.077 25.9819C134.536 26.2676 133.934 26.417 133.322 26.417C132.71 26.417 132.107 26.2676 131.566 25.9819L131.849 24.1044C133.041 24.2205 134.013 23.8489 134.52 23.0863C135.089 22.2385 135 20.9804 134.28 19.6293C133.475 18.1157 131.736 17.8757 130.773 17.8641H130.711C128.295 17.8641 125.833 19.2383 124.838 21.0307L123.39 20.3378C123.675 19.4144 124.159 18.5648 124.807 17.8486C124.249 17.3746 123.827 16.7603 123.585 16.069C123.342 15.3778 123.289 14.6344 123.429 13.9155L124.857 13.7839C124.923 14.3654 125.163 14.9132 125.547 15.3549C125.931 15.7967 126.44 16.1114 127.006 16.2576C128.197 15.7257 129.491 15.4615 130.796 15.4833C130.982 15.4833 131.16 15.5027 131.342 15.5143C130.416 13.8734 128.949 12.605 127.192 11.9258C122.903 10.2612 120.011 12.8432 119.349 13.7336C117.754 15.8705 118.776 17.8912 119.554 19.2035L118.277 20.3648C117.164 19.4025 116.417 18.0858 116.163 16.6369C114.525 17.1286 112.327 17.0241 111.096 14.922L112.257 14.1246C113.561 15.1001 115.633 15.0149 116.616 13.811C116.85 13.2787 117.146 12.7758 117.498 12.3129C118.057 11.5747 118.732 10.9315 119.496 10.4083C116.287 9.53341 111.754 9.67664 109.013 11.4341C108.272 11.8642 107.663 12.4877 107.249 13.2379C106.836 13.9881 106.635 14.8366 106.667 15.6924C106.667 17.0744 107.751 19.2577 109.21 19.5984L108.363 21.2436C107.431 21.0279 106.586 20.5385 105.935 19.8384L104.677 21.441L103.419 20.8294L104.65 17.6086C104.449 16.983 104.346 16.3301 104.344 15.673C104.347 15.1528 104.402 14.6341 104.507 14.1246C100.636 15.7234 98.7234 18.3828 98.0227 20.8139C97.4846 22.6837 97.6937 24.3715 98.5763 25.2773C99.277 25.9974 100.349 26.1677 101.36 26.1019L104.069 23.9921L104.96 24.7431L104.155 27.3832C104.577 28.7265 105.959 29.4194 108.479 28.9317C108.609 27.8629 109.031 26.8506 109.698 26.0051C110.187 25.3013 110.834 24.7222 111.587 24.3134L112.911 20.7481L114.235 20.69L114.092 23.6127C116.318 23.3843 118.807 23.8373 121.126 23.4889L121.551 25.0373C118.153 26.609 114.672 24.0463 111.518 27.4258C110.383 28.6413 110.817 29.6982 111.518 30.7627C112.528 32.2841 114.425 31.3705 116.364 30.7627C119.302 29.8646 121.435 29.2143 125.457 29.5433C124.497 27.72 124.59 25.5173 125.876 23.094L127.769 23.8411C126.441 26.9032 127.683 28.6762 128.543 29.4581C129.871 30.6659 131.868 31.0298 133.188 30.3021C133.694 30.0229 134.128 29.6312 134.459 29.1574C134.789 28.6835 135.006 28.14 135.093 27.569C135.18 27.0429 135.173 26.5056 135.073 25.9819H135.077Z" fill="#C8B2B3"/>
<path d="M148.218 22.475L148.443 21.725H159.505L159.28 22.475H148.218ZM160.293 12.2375C159.818 12.2375 159.405 12.3375 159.055 12.5375C158.705 12.7375 158.393 12.9625 158.118 13.2125C157.668 13.6375 157.268 14.2875 156.918 15.1625C156.593 16.0125 156.28 17 155.98 18.125C155.705 19.25 155.405 20.4375 155.08 21.6875L148.143 47.525C147.543 47.55 146.955 47.6 146.38 47.675C145.805 47.75 145.268 47.875 144.768 48.05L151.818 21.6875C152.343 19.6875 152.893 18.0375 153.468 16.7375C154.068 15.4375 154.793 14.375 155.643 13.55C156.218 12.975 156.918 12.525 157.743 12.2C158.593 11.85 159.455 11.675 160.33 11.675C161.48 11.675 162.355 11.9375 162.955 12.4625C163.58 12.9625 163.893 13.5875 163.893 14.3375C163.893 14.7625 163.78 15.175 163.555 15.575C163.33 15.975 163.03 16.3 162.655 16.55C162.28 16.8 161.855 16.925 161.38 16.925C160.905 16.925 160.53 16.8125 160.255 16.5875C159.98 16.3625 159.855 16.05 159.88 15.65C159.88 15.025 160.08 14.5 160.48 14.075C160.88 13.625 161.393 13.3125 162.018 13.1375C162.018 12.9125 161.855 12.7125 161.53 12.5375C161.205 12.3375 160.793 12.2375 160.293 12.2375ZM172.641 28.025C171.741 30.525 170.879 32.6375 170.054 34.3625C169.229 36.0875 168.404 37.475 167.579 38.525C166.779 39.575 165.954 40.3375 165.104 40.8125C164.279 41.2875 163.416 41.525 162.516 41.525C161.416 41.525 160.616 41.275 160.116 40.775C159.616 40.275 159.366 39.6 159.366 38.75C159.366 37.9 159.541 36.9375 159.891 35.8625L163.529 24.9125C163.779 24.1625 163.866 23.5875 163.791 23.1875C163.716 22.7875 163.429 22.5875 162.929 22.5875C162.454 22.5875 161.979 22.85 161.504 23.375C161.054 23.9 160.566 24.9125 160.041 26.4125L159.554 27.8H158.841L159.779 25.0625C160.154 24.0125 160.591 23.2125 161.091 22.6625C161.616 22.1125 162.154 21.7375 162.704 21.5375C163.279 21.3125 163.816 21.2 164.316 21.2C165.416 21.2 166.141 21.4625 166.491 21.9875C166.866 22.4875 167.004 23.1375 166.904 23.9375C166.829 24.7375 166.641 25.575 166.341 26.45L162.779 37.175C162.079 39.275 162.354 40.325 163.604 40.325C164.204 40.325 164.841 40.0625 165.516 39.5375C166.191 38.9875 166.879 38.2125 167.579 37.2125C168.279 36.1875 168.966 34.975 169.641 33.575C170.341 32.15 171.004 30.575 171.629 28.85C172.279 27.1 172.866 25.225 173.391 23.225L172.641 28.025ZM172.529 37.8125C172.354 38.4875 172.266 39.05 172.266 39.5C172.291 39.925 172.554 40.1375 173.054 40.1375C173.604 40.1375 174.104 39.85 174.554 39.275C175.029 38.675 175.504 37.6875 175.979 36.3125L176.466 34.925H177.179L176.241 37.6625C175.891 38.7125 175.454 39.5125 174.929 40.0625C174.429 40.6125 173.891 40.9875 173.316 41.1875C172.766 41.4125 172.229 41.525 171.704 41.525C171.304 41.525 170.929 41.4375 170.579 41.2625C170.229 41.0875 169.966 40.8375 169.791 40.5125C169.591 40.0875 169.516 39.55 169.566 38.9C169.641 38.25 169.816 37.375 170.091 36.275L173.766 21.725C174.391 21.7 174.991 21.65 175.566 21.575C176.166 21.5 176.704 21.375 177.179 21.2L172.529 37.8125ZM193.093 21.725L192.981 22.475H181.318L181.506 21.725H193.093ZM183.568 37.8125C183.343 38.6375 183.393 39.2375 183.718 39.6125C184.068 39.9625 184.518 40.1375 185.068 40.1375C185.618 40.1375 186.168 39.9 186.718 39.425C187.293 38.95 187.856 37.9375 188.406 36.3875L188.931 34.925H189.643L188.856 37.2875C188.306 38.9125 187.593 40.025 186.718 40.625C185.868 41.225 184.868 41.525 183.718 41.525C182.693 41.525 181.906 41.3125 181.356 40.8875C180.831 40.4375 180.518 39.8125 180.418 39.0125C180.318 38.2125 180.418 37.3 180.718 36.275L186.531 16.025C187.131 16 187.718 15.95 188.293 15.875C188.893 15.8 189.431 15.675 189.906 15.5L183.568 37.8125ZM206.516 28.025C205.616 30.525 204.753 32.6375 203.928 34.3625C203.103 36.0875 202.278 37.475 201.453 38.525C200.653 39.575 199.828 40.3375 198.978 40.8125C198.153 41.2875 197.291 41.525 196.391 41.525C195.291 41.525 194.491 41.275 193.991 40.775C193.491 40.275 193.241 39.6 193.241 38.75C193.241 37.9 193.416 36.9375 193.766 35.8625L197.403 24.9125C197.653 24.1625 197.741 23.5875 197.666 23.1875C197.591 22.7875 197.303 22.5875 196.803 22.5875C196.328 22.5875 195.853 22.85 195.378 23.375C194.928 23.9 194.441 24.9125 193.916 26.4125L193.428 27.8H192.716L193.653 25.0625C194.028 24.0125 194.466 23.2125 194.966 22.6625C195.491 22.1125 196.028 21.7375 196.578 21.5375C197.153 21.3125 197.691 21.2 198.191 21.2C199.291 21.2 200.016 21.4625 200.366 21.9875C200.741 22.4875 200.878 23.1375 200.778 23.9375C200.703 24.7375 200.516 25.575 200.216 26.45L196.653 37.175C195.953 39.275 196.228 40.325 197.478 40.325C198.078 40.325 198.716 40.0625 199.391 39.5375C200.066 38.9875 200.753 38.2125 201.453 37.2125C202.153 36.1875 202.841 34.975 203.516 33.575C204.216 32.15 204.878 30.575 205.503 28.85C206.153 27.1 206.741 25.225 207.266 23.225L206.516 28.025ZM206.403 37.8125C206.228 38.4875 206.141 39.05 206.141 39.5C206.166 39.925 206.428 40.1375 206.928 40.1375C207.478 40.1375 207.978 39.85 208.428 39.275C208.903 38.675 209.378 37.6875 209.853 36.3125L210.341 34.925H211.053L210.116 37.6625C209.766 38.7125 209.328 39.5125 208.803 40.0625C208.303 40.6125 207.766 40.9875 207.191 41.1875C206.641 41.4125 206.103 41.525 205.578 41.525C205.178 41.525 204.803 41.4375 204.453 41.2625C204.103 41.0875 203.841 40.8375 203.666 40.5125C203.466 40.0875 203.391 39.55 203.441 38.9C203.516 38.25 203.691 37.375 203.966 36.275L207.641 21.725C208.266 21.7 208.866 21.65 209.441 21.575C210.041 21.5 210.578 21.375 211.053 21.2L206.403 37.8125ZM217.443 41H214.18L218.68 24.9125C218.93 24.0625 219.005 23.4625 218.905 23.1125C218.83 22.7625 218.58 22.5875 218.155 22.5875C217.605 22.5875 217.105 22.875 216.655 23.45C216.205 24.025 215.73 25.0125 215.23 26.4125L214.743 27.8H214.03L214.968 25.0625C215.343 24.0125 215.78 23.2125 216.28 22.6625C216.805 22.1125 217.343 21.7375 217.893 21.5375C218.468 21.3125 219.005 21.2 219.505 21.2C220.255 21.2 220.78 21.3625 221.08 21.6875C221.405 22.0125 221.58 22.4375 221.605 22.9625C221.655 23.4875 221.618 24.0625 221.493 24.6875C221.393 25.2875 221.268 25.875 221.118 26.45L217.443 41ZM227.08 22.1375C226.505 22.1375 225.905 22.4125 225.28 22.9625C224.68 23.4875 224.055 24.2625 223.405 25.2875C222.78 26.2875 222.143 27.5 221.493 28.925C220.868 30.325 220.243 31.8875 219.618 33.6125C219.018 35.3375 218.43 37.2 217.855 39.2L218.793 34.4C219.618 31.95 220.38 29.8875 221.08 28.2125C221.805 26.5375 222.518 25.1875 223.218 24.1625C223.918 23.1125 224.63 22.3625 225.355 21.9125C226.105 21.4375 226.893 21.2 227.718 21.2C228.418 21.2 228.955 21.4 229.33 21.8C229.73 22.2 229.93 22.7125 229.93 23.3375C229.93 23.8375 229.805 24.3 229.555 24.725C229.305 25.125 228.98 25.45 228.58 25.7C228.205 25.925 227.78 26.0375 227.305 26.0375C226.88 26.0375 226.518 25.925 226.218 25.7C225.943 25.45 225.805 25.1125 225.805 24.6875C225.805 24.2875 225.88 23.9375 226.03 23.6375C226.18 23.3125 226.38 23.0375 226.63 22.8125C226.88 22.5875 227.168 22.4125 227.493 22.2875C227.443 22.2375 227.38 22.2 227.305 22.175C227.255 22.15 227.18 22.1375 227.08 22.1375ZM231.29 32.4875C232.69 32.0125 233.952 31.55 235.077 31.1C236.227 30.625 237.14 30.125 237.815 29.6C238.715 28.875 239.427 28 239.952 26.975C240.477 25.95 240.74 24.825 240.74 23.6C240.74 22.875 240.69 22.4125 240.59 22.2125C240.49 22.0125 240.34 21.9125 240.14 21.9125C239.515 21.9125 238.84 22.1875 238.115 22.7375C237.39 23.2875 236.677 24.05 235.977 25.025C235.277 25.975 234.627 27.0625 234.027 28.2875C233.452 29.5125 232.99 30.825 232.64 32.225C232.29 33.6 232.115 34.975 232.115 36.35C232.115 37.625 232.352 38.55 232.827 39.125C233.302 39.675 233.927 39.95 234.702 39.95C235.602 39.95 236.552 39.675 237.552 39.125C238.552 38.575 239.527 37.6 240.477 36.2L241.077 36.5C240.602 37.325 239.977 38.125 239.202 38.9C238.427 39.675 237.552 40.3125 236.577 40.8125C235.627 41.2875 234.615 41.525 233.54 41.525C232.54 41.525 231.665 41.325 230.915 40.925C230.165 40.525 229.59 39.9375 229.19 39.1625C228.79 38.3625 228.59 37.3875 228.59 36.2375C228.59 35.1625 228.79 33.9625 229.19 32.6375C229.59 31.2875 230.152 29.95 230.877 28.625C231.627 27.275 232.515 26.0375 233.54 24.9125C234.565 23.7875 235.702 22.8875 236.952 22.2125C238.202 21.5375 239.54 21.2 240.965 21.2C241.74 21.2 242.39 21.4125 242.915 21.8375C243.465 22.2375 243.74 22.85 243.74 23.675C243.74 24.675 243.44 25.6125 242.84 26.4875C242.265 27.3375 241.49 28.125 240.515 28.85C239.565 29.55 238.527 30.175 237.402 30.725C236.277 31.275 235.177 31.75 234.102 32.15C233.027 32.55 232.077 32.875 231.252 33.125L231.29 32.4875ZM246.766 30.3875H260.304L259.741 32.5625H246.204L246.766 30.3875ZM277.363 22.4C276.713 22.4 275.975 22.8625 275.15 23.7875C274.35 24.6875 273.525 25.925 272.675 27.5C271.85 29.05 271.063 30.8 270.313 32.75C269.588 34.7 268.975 36.725 268.475 38.825L269.15 34.775C270.225 31.5 271.263 28.875 272.263 26.9C273.263 24.9 274.263 23.45 275.263 22.55C276.288 21.65 277.35 21.2 278.45 21.2C279.625 21.2 280.563 21.6375 281.263 22.5125C281.988 23.3875 282.35 24.7125 282.35 26.4875C282.35 27.6125 282.188 28.85 281.863 30.2C281.563 31.55 281.1 32.8875 280.475 34.2125C279.875 35.5375 279.125 36.7625 278.225 37.8875C277.35 38.9875 276.338 39.875 275.188 40.55C274.038 41.2 272.763 41.525 271.363 41.525C270.613 41.525 269.938 41.3 269.338 40.85C268.763 40.4 268.375 39.75 268.175 38.9L268.475 38.15C268.825 39.075 269.225 39.725 269.675 40.1C270.15 40.475 270.7 40.6625 271.325 40.6625C272.175 40.6625 272.988 40.3375 273.763 39.6875C274.538 39.0125 275.25 38.125 275.9 37.025C276.55 35.925 277.113 34.7125 277.588 33.3875C278.088 32.0375 278.463 30.7 278.713 29.375C278.988 28.025 279.125 26.7875 279.125 25.6625C279.125 24.5625 278.963 23.75 278.638 23.225C278.338 22.675 277.913 22.4 277.363 22.4ZM271.738 15.9875C272.338 15.9625 272.925 15.9125 273.5 15.8375C274.1 15.7625 274.65 15.6375 275.15 15.4625L266.9 44.3C266.6 45.35 266.75 46.0625 267.35 46.4375C267.95 46.8125 268.813 47 269.938 47L269.713 47.7875C269.213 47.7625 268.5 47.725 267.575 47.675C266.675 47.65 265.713 47.6375 264.688 47.6375C263.913 47.6375 263.125 47.65 262.325 47.675C261.525 47.725 260.925 47.7625 260.525 47.7875L260.75 47C261.65 47 262.3 46.825 262.7 46.475C263.1 46.15 263.425 45.55 263.675 44.675L271.738 15.9875ZM263.938 27.6125C264.913 26.6625 265.825 25.725 266.675 24.8C267.525 23.85 268.35 22.725 269.15 21.425C269.95 20.125 270.763 18.4875 271.588 16.5125L271.7 17.1125C271.15 18.8125 270.488 20.3125 269.713 21.6125C268.963 22.8875 268.138 24.05 267.238 25.1C266.338 26.125 265.375 27.125 264.35 28.1L263.938 27.6125ZM288.304 41H285.042L289.542 24.9125C289.792 24.0625 289.867 23.4625 289.767 23.1125C289.692 22.7625 289.442 22.5875 289.017 22.5875C288.467 22.5875 287.967 22.875 287.517 23.45C287.067 24.025 286.592 25.0125 286.092 26.4125L285.604 27.8H284.892L285.829 25.0625C286.204 24.0125 286.642 23.2125 287.142 22.6625C287.667 22.1125 288.204 21.7375 288.754 21.5375C289.329 21.3125 289.867 21.2 290.367 21.2C291.117 21.2 291.642 21.3625 291.942 21.6875C292.267 22.0125 292.442 22.4375 292.467 22.9625C292.517 23.4875 292.479 24.0625 292.354 24.6875C292.254 25.2875 292.129 25.875 291.979 26.45L288.304 41ZM297.942 22.1375C297.367 22.1375 296.767 22.4125 296.142 22.9625C295.542 23.4875 294.917 24.2625 294.267 25.2875C293.642 26.2875 293.004 27.5 292.354 28.925C291.729 30.325 291.104 31.8875 290.479 33.6125C289.879 35.3375 289.292 37.2 288.717 39.2L289.654 34.4C290.479 31.95 291.242 29.8875 291.942 28.2125C292.667 26.5375 293.379 25.1875 294.079 24.1625C294.779 23.1125 295.492 22.3625 296.217 21.9125C296.967 21.4375 297.754 21.2 298.579 21.2C299.279 21.2 299.817 21.4 300.192 21.8C300.592 22.2 300.792 22.7125 300.792 23.3375C300.792 23.8375 300.667 24.3 300.417 24.725C300.167 25.125 299.842 25.45 299.442 25.7C299.067 25.925 298.642 26.0375 298.167 26.0375C297.742 26.0375 297.379 25.925 297.079 25.7C296.804 25.45 296.667 25.1125 296.667 24.6875C296.667 24.2875 296.742 23.9375 296.892 23.6375C297.042 23.3125 297.242 23.0375 297.492 22.8125C297.742 22.5875 298.029 22.4125 298.354 22.2875C298.304 22.2375 298.242 22.2 298.167 22.175C298.117 22.15 298.042 22.1375 297.942 22.1375ZM310.401 21.95C309.601 21.95 308.826 22.275 308.076 22.925C307.351 23.55 306.676 24.4125 306.051 25.5125C305.451 26.5875 304.914 27.8 304.439 29.15C303.989 30.5 303.639 31.9 303.389 33.35C303.139 34.8 303.014 36.1875 303.014 37.5125C303.014 38.6375 303.189 39.4625 303.539 39.9875C303.914 40.5125 304.451 40.775 305.151 40.775C305.951 40.775 306.714 40.4625 307.439 39.8375C308.189 39.1875 308.876 38.325 309.501 37.25C310.126 36.15 310.664 34.925 311.114 33.575C311.564 32.225 311.914 30.8375 312.164 29.4125C312.414 27.9625 312.539 26.5625 312.539 25.2125C312.539 24.0625 312.364 23.2375 312.014 22.7375C311.664 22.2125 311.126 21.95 310.401 21.95ZM299.789 35.6375C299.789 34.5375 299.939 33.3375 300.239 32.0375C300.539 30.7375 300.989 29.45 301.589 28.175C302.189 26.9 302.914 25.7375 303.764 24.6875C304.639 23.6375 305.651 22.8 306.801 22.175C307.951 21.525 309.226 21.2 310.626 21.2C312.176 21.2 313.414 21.6875 314.339 22.6625C315.289 23.6125 315.764 25.0875 315.764 27.0875C315.764 28.1875 315.614 29.3875 315.314 30.6875C315.014 31.9875 314.564 33.275 313.964 34.55C313.364 35.825 312.626 36.9875 311.751 38.0375C310.901 39.0875 309.901 39.9375 308.751 40.5875C307.601 41.2125 306.326 41.525 304.926 41.525C303.376 41.525 302.126 41.0375 301.176 40.0625C300.251 39.0875 299.789 37.6125 299.789 35.6375ZM328.712 21.95C327.912 21.95 327.137 22.275 326.387 22.925C325.662 23.55 324.987 24.4125 324.362 25.5125C323.762 26.5875 323.224 27.8 322.749 29.15C322.299 30.5 321.949 31.9 321.699 33.35C321.449 34.8 321.324 36.1875 321.324 37.5125C321.324 38.6375 321.499 39.4625 321.849 39.9875C322.224 40.5125 322.762 40.775 323.462 40.775C324.262 40.775 325.024 40.4625 325.749 39.8375C326.499 39.1875 327.187 38.325 327.812 37.25C328.437 36.15 328.974 34.925 329.424 33.575C329.874 32.225 330.224 30.8375 330.474 29.4125C330.724 27.9625 330.849 26.5625 330.849 25.2125C330.849 24.0625 330.674 23.2375 330.324 22.7375C329.974 22.2125 329.437 21.95 328.712 21.95ZM318.099 35.6375C318.099 34.5375 318.249 33.3375 318.549 32.0375C318.849 30.7375 319.299 29.45 319.899 28.175C320.499 26.9 321.224 25.7375 322.074 24.6875C322.949 23.6375 323.962 22.8 325.112 22.175C326.262 21.525 327.537 21.2 328.937 21.2C330.487 21.2 331.724 21.6875 332.649 22.6625C333.599 23.6125 334.074 25.0875 334.074 27.0875C334.074 28.1875 333.924 29.3875 333.624 30.6875C333.324 31.9875 332.874 33.275 332.274 34.55C331.674 35.825 330.937 36.9875 330.062 38.0375C329.212 39.0875 328.212 39.9375 327.062 40.5875C325.912 41.2125 324.637 41.525 323.237 41.525C321.687 41.525 320.437 41.0375 319.487 40.0625C318.562 39.0875 318.099 37.6125 318.099 35.6375ZM338.135 22.475L338.36 21.725H349.422L349.197 22.475H338.135ZM350.21 12.2375C349.735 12.2375 349.322 12.3375 348.972 12.5375C348.622 12.7375 348.31 12.9625 348.035 13.2125C347.585 13.6375 347.185 14.2875 346.835 15.1625C346.51 16.0125 346.197 17 345.897 18.125C345.622 19.25 345.322 20.4375 344.997 21.6875L338.06 47.525C337.46 47.55 336.872 47.6 336.297 47.675C335.722 47.75 335.185 47.875 334.685 48.05L341.735 21.6875C342.26 19.6875 342.81 18.0375 343.385 16.7375C343.985 15.4375 344.71 14.375 345.56 13.55C346.135 12.975 346.835 12.525 347.66 12.2C348.51 11.85 349.372 11.675 350.247 11.675C351.397 11.675 352.272 11.9375 352.872 12.4625C353.497 12.9625 353.81 13.5875 353.81 14.3375C353.81 14.7625 353.697 15.175 353.472 15.575C353.247 15.975 352.947 16.3 352.572 16.55C352.197 16.8 351.772 16.925 351.297 16.925C350.822 16.925 350.447 16.8125 350.172 16.5875C349.897 16.3625 349.772 16.05 349.797 15.65C349.797 15.025 349.997 14.5 350.397 14.075C350.797 13.625 351.31 13.3125 351.935 13.1375C351.935 12.9125 351.772 12.7125 351.447 12.5375C351.122 12.3375 350.71 12.2375 350.21 12.2375Z" fill="#AA7821"/>
<path d="M362.966 52.46C361.166 52.46 359.816 52.19 358.916 51.65C358.016 51.11 357.431 50.36 357.161 49.4C356.921 48.47 356.891 47.375 357.071 46.115C357.251 44.855 357.521 43.505 357.881 42.065C358.391 40.055 358.766 38.39 359.006 37.07C359.246 35.72 359.366 34.625 359.366 33.785C359.336 32.855 359.141 32.195 358.781 31.805C358.451 31.385 357.941 31.16 357.251 31.13H357.026L357.161 30.32H357.386C358.346 30.23 359.141 29.87 359.771 29.24C360.431 28.58 361.046 27.47 361.616 25.91C362.216 24.35 362.861 22.175 363.551 19.385C364.271 16.625 365.051 14.48 365.891 12.95C366.761 11.42 367.826 10.355 369.086 9.755C370.346 9.125 371.906 8.81 373.766 8.81L373.541 9.665C372.821 9.665 372.191 9.77 371.651 9.98C371.141 10.16 370.676 10.58 370.256 11.24C369.866 11.87 369.461 12.83 369.041 14.12C368.621 15.41 368.141 17.165 367.601 19.385C366.941 22.055 366.116 24.155 365.126 25.685C364.166 27.215 363.101 28.355 361.931 29.105C360.761 29.855 359.576 30.395 358.376 30.725C359.726 31.115 360.731 31.73 361.391 32.57C362.051 33.38 362.456 34.325 362.606 35.405C362.756 36.455 362.741 37.565 362.561 38.735C362.411 39.875 362.201 40.985 361.931 42.065C361.481 43.895 361.136 45.395 360.896 46.565C360.686 47.735 360.596 48.665 360.626 49.355C360.626 50.285 360.836 50.885 361.256 51.155C361.706 51.425 362.351 51.575 363.191 51.605L362.966 52.46Z" fill="#C8B2B3"/>
<path d="M389.932 21.95C388.982 21.95 388.032 22.3375 387.082 23.1125C386.157 23.8875 385.307 24.95 384.532 26.3C383.757 27.65 383.132 29.1875 382.657 30.9125C382.207 32.6375 381.982 34.45 381.982 36.35C381.982 37.625 382.22 38.55 382.695 39.125C383.195 39.675 383.832 39.95 384.607 39.95C385.507 39.95 386.432 39.675 387.382 39.125C388.332 38.575 389.282 37.6 390.232 36.2L390.982 36.5C390.507 37.325 389.882 38.125 389.107 38.9C388.332 39.675 387.457 40.3125 386.482 40.8125C385.532 41.2875 384.52 41.525 383.445 41.525C381.945 41.525 380.745 41.0625 379.845 40.1375C378.945 39.2125 378.495 37.8375 378.495 36.0125C378.495 34.8625 378.657 33.625 378.982 32.3C379.332 30.95 379.82 29.625 380.445 28.325C381.095 27 381.882 25.8125 382.807 24.7625C383.732 23.6875 384.782 22.825 385.957 22.175C387.132 21.525 388.42 21.2 389.82 21.2C390.92 21.2 391.87 21.4875 392.67 22.0625C393.47 22.6125 393.87 23.3875 393.87 24.3875C393.87 24.8625 393.757 25.3375 393.532 25.8125C393.332 26.2625 393.032 26.6375 392.632 26.9375C392.232 27.2375 391.757 27.3875 391.207 27.3875C390.682 27.3875 390.295 27.25 390.045 26.975C389.795 26.675 389.67 26.325 389.67 25.925C389.67 25.2 389.957 24.5875 390.532 24.0875C391.107 23.5625 391.757 23.2375 392.482 23.1125C392.232 22.7625 391.907 22.4875 391.507 22.2875C391.107 22.0625 390.582 21.95 389.932 21.95ZM405.406 21.95C404.606 21.95 403.831 22.275 403.081 22.925C402.356 23.55 401.681 24.4125 401.056 25.5125C400.456 26.5875 399.919 27.8 399.444 29.15C398.994 30.5 398.644 31.9 398.394 33.35C398.144 34.8 398.019 36.1875 398.019 37.5125C398.019 38.6375 398.194 39.4625 398.544 39.9875C398.919 40.5125 399.456 40.775 400.156 40.775C400.956 40.775 401.719 40.4625 402.444 39.8375C403.194 39.1875 403.881 38.325 404.506 37.25C405.131 36.15 405.669 34.925 406.119 33.575C406.569 32.225 406.919 30.8375 407.169 29.4125C407.419 27.9625 407.544 26.5625 407.544 25.2125C407.544 24.0625 407.369 23.2375 407.019 22.7375C406.669 22.2125 406.131 21.95 405.406 21.95ZM394.794 35.6375C394.794 34.5375 394.944 33.3375 395.244 32.0375C395.544 30.7375 395.994 29.45 396.594 28.175C397.194 26.9 397.919 25.7375 398.769 24.6875C399.644 23.6375 400.656 22.8 401.806 22.175C402.956 21.525 404.231 21.2 405.631 21.2C407.181 21.2 408.419 21.6875 409.344 22.6625C410.294 23.6125 410.769 25.0875 410.769 27.0875C410.769 28.1875 410.619 29.3875 410.319 30.6875C410.019 31.9875 409.569 33.275 408.969 34.55C408.369 35.825 407.631 36.9875 406.756 38.0375C405.906 39.0875 404.906 39.9375 403.756 40.5875C402.606 41.2125 401.331 41.525 399.931 41.525C398.381 41.525 397.131 41.0375 396.181 40.0625C395.256 39.0875 394.794 37.6125 394.794 35.6375ZM426.155 37.8125C425.98 38.3875 425.905 38.925 425.93 39.425C425.98 39.9 426.28 40.1375 426.83 40.1375C427.33 40.1375 427.792 39.8625 428.217 39.3125C428.642 38.7375 429.092 37.7375 429.567 36.3125L430.017 34.925H430.73L429.867 37.6625C429.567 38.6625 429.167 39.45 428.667 40.025C428.167 40.575 427.642 40.9625 427.092 41.1875C426.542 41.4125 426.017 41.525 425.517 41.525C424.017 41.525 423.23 40.8125 423.155 39.3875C423.13 38.9875 423.155 38.525 423.23 38C423.33 37.475 423.467 36.9 423.642 36.275L429.042 15.9875C429.267 15.1375 429.23 14.5125 428.93 14.1125C428.63 13.7125 427.867 13.5125 426.642 13.5125L426.867 12.725C428.242 12.7 429.455 12.5625 430.505 12.3125C431.555 12.0375 432.555 11.6625 433.505 11.1875L426.155 37.8125ZM417.755 40.325C418.38 40.325 419.08 39.9625 419.855 39.2375C420.655 38.4875 421.455 37.4875 422.255 36.2375C423.08 34.9625 423.83 33.525 424.505 31.925C425.205 30.3 425.755 28.625 426.155 26.9L425.592 30.95C424.617 33.525 423.642 35.5875 422.667 37.1375C421.717 38.6875 420.742 39.8125 419.742 40.5125C418.767 41.1875 417.742 41.525 416.667 41.525C415.892 41.525 415.205 41.35 414.605 41C414.03 40.625 413.58 40.075 413.255 39.35C412.93 38.625 412.767 37.7 412.767 36.575C412.767 35.375 412.955 34.0875 413.33 32.7125C413.73 31.3125 414.292 29.9375 415.017 28.5875C415.742 27.2375 416.605 26.0125 417.605 24.9125C418.63 23.7875 419.755 22.8875 420.98 22.2125C422.205 21.5375 423.505 21.2 424.88 21.2C425.455 21.2 425.992 21.425 426.492 21.875C426.992 22.3 427.267 22.95 427.317 23.825L427.017 24.575C426.917 23.675 426.667 23.0375 426.267 22.6625C425.867 22.2625 425.417 22.0625 424.917 22.0625C423.967 22.0625 423.042 22.3875 422.142 23.0375C421.267 23.6875 420.467 24.55 419.742 25.625C419.017 26.7 418.38 27.9 417.83 29.225C417.28 30.525 416.855 31.8625 416.555 33.2375C416.255 34.5875 416.105 35.8625 416.105 37.0625C416.105 38.1625 416.242 38.9875 416.517 39.5375C416.792 40.0625 417.205 40.325 417.755 40.325ZM439.729 14.9C439.854 14.25 440.179 13.6875 440.704 13.2125C441.254 12.7375 441.842 12.5 442.467 12.5C443.117 12.5 443.617 12.7375 443.967 13.2125C444.342 13.6875 444.467 14.25 444.342 14.9C444.217 15.55 443.879 16.1125 443.329 16.5875C442.804 17.0625 442.217 17.3 441.567 17.3C440.942 17.3 440.442 17.0625 440.067 16.5875C439.717 16.1125 439.604 15.55 439.729 14.9ZM438.567 24.9125C439.092 23.3625 438.917 22.5875 438.042 22.5875C437.467 22.5875 436.954 22.9 436.504 23.525C436.054 24.15 435.579 25.1125 435.079 26.4125L434.554 27.8H433.842L434.817 25.0625C435.192 24.0125 435.642 23.2125 436.167 22.6625C436.692 22.1125 437.242 21.7375 437.817 21.5375C438.417 21.3125 438.967 21.2 439.467 21.2C440.267 21.2 440.854 21.3625 441.229 21.6875C441.604 22.0125 441.829 22.4375 441.904 22.9625C441.979 23.4875 441.954 24.0625 441.829 24.6875C441.704 25.2875 441.542 25.875 441.342 26.45L437.329 37.8125C437.079 38.5375 436.992 39.1125 437.067 39.5375C437.167 39.9375 437.454 40.1375 437.929 40.1375C438.429 40.1375 438.904 39.8625 439.354 39.3125C439.804 38.7625 440.304 37.7625 440.854 36.3125L441.379 34.925H442.092L441.117 37.6625C440.767 38.6375 440.342 39.4125 439.842 39.9875C439.342 40.5375 438.804 40.925 438.229 41.15C437.654 41.4 437.079 41.525 436.504 41.525C435.429 41.525 434.704 41.275 434.329 40.775C433.954 40.275 433.817 39.625 433.917 38.825C434.017 38.025 434.229 37.175 434.554 36.275L438.567 24.9125ZM448.533 41H445.27L449.77 24.9125C449.87 24.6125 449.945 24.2875 449.995 23.9375C450.07 23.5625 450.058 23.25 449.958 23C449.858 22.725 449.608 22.5875 449.208 22.5875C448.658 22.5875 448.17 22.8625 447.745 23.4125C447.32 23.9375 446.845 24.9375 446.32 26.4125L445.833 27.8H445.12L446.058 25.0625C446.608 23.4875 447.283 22.45 448.083 21.95C448.908 21.45 449.72 21.2 450.52 21.2C451.27 21.2 451.808 21.3625 452.133 21.6875C452.483 22.0125 452.67 22.4375 452.695 22.9625C452.745 23.4625 452.708 24.025 452.583 24.65C452.483 25.25 452.358 25.85 452.208 26.45L448.533 41ZM450.258 33.2C451.133 30.95 451.983 29.0625 452.808 27.5375C453.633 26.0125 454.445 24.7875 455.245 23.8625C456.045 22.9125 456.858 22.2375 457.683 21.8375C458.533 21.4125 459.408 21.2 460.308 21.2C461.483 21.2 462.283 21.4875 462.708 22.0625C463.158 22.6125 463.358 23.325 463.308 24.2C463.258 25.05 463.083 25.9375 462.783 26.8625L459.145 37.8125C458.92 38.4875 458.82 39.05 458.845 39.5C458.895 39.925 459.195 40.1375 459.745 40.1375C460.22 40.1375 460.683 39.875 461.133 39.35C461.608 38.825 462.108 37.8125 462.633 36.3125L463.12 34.925H463.833L462.895 37.6625C462.545 38.7125 462.108 39.5125 461.583 40.0625C461.083 40.6125 460.545 40.9875 459.97 41.1875C459.42 41.4125 458.883 41.525 458.358 41.525C457.758 41.525 457.258 41.425 456.858 41.225C456.483 41.025 456.195 40.7625 455.995 40.4375C455.72 39.9875 455.633 39.4 455.733 38.675C455.833 37.95 456.033 37.15 456.333 36.275L459.895 25.55C460.02 25.2 460.12 24.7875 460.195 24.3125C460.295 23.8125 460.283 23.375 460.158 23C460.033 22.6 459.67 22.4 459.07 22.4C458.47 22.4 457.833 22.6625 457.158 23.1875C456.483 23.7125 455.783 24.4625 455.058 25.4375C454.333 26.3875 453.62 27.5375 452.92 28.8875C452.22 30.2125 451.545 31.6875 450.895 33.3125C450.27 34.9125 449.695 36.625 449.17 38.45L450.258 33.2ZM473.811 32.5625L474.748 32.6C473.848 33.1 473.011 33.5625 472.236 33.9875C471.486 34.3875 470.873 34.7625 470.398 35.1125C469.923 35.4625 469.686 35.8 469.686 36.125C469.686 36.375 469.861 36.6125 470.211 36.8375C470.561 37.0375 471.136 37.2375 471.936 37.4375L474.673 38.15C475.473 38.35 476.186 38.5875 476.811 38.8625C477.461 39.1125 477.973 39.4375 478.348 39.8375C478.723 40.2375 478.911 40.7625 478.911 41.4125C478.911 42.0375 478.698 42.7375 478.273 43.5125C477.873 44.3125 477.236 45.075 476.361 45.8C475.511 46.525 474.398 47.125 473.023 47.6C471.648 48.075 469.986 48.3125 468.036 48.3125C466.736 48.3125 465.648 48.1875 464.773 47.9375C463.873 47.7125 463.211 47.3875 462.786 46.9625C462.336 46.5375 462.111 46.05 462.111 45.5C462.111 45.1 462.223 44.675 462.448 44.225C462.673 43.8 463.011 43.375 463.461 42.95C463.886 42.55 464.436 42.1625 465.111 41.7875C465.761 41.4375 466.536 41.1375 467.436 40.8875L467.698 41.45C466.773 41.925 466.136 42.4625 465.786 43.0625C465.436 43.6625 465.261 44.2625 465.261 44.8625C465.261 45.8625 465.611 46.575 466.311 47C467.011 47.45 467.873 47.675 468.898 47.675C469.723 47.675 470.573 47.5375 471.448 47.2625C472.323 47.0125 473.136 46.6625 473.886 46.2125C474.636 45.7875 475.236 45.2875 475.686 44.7125C476.136 44.1375 476.361 43.5375 476.361 42.9125C476.361 42.5375 476.236 42.2875 475.986 42.1625C475.761 42.0375 475.373 41.9125 474.823 41.7875L469.086 40.325C468.486 40.175 467.998 39.925 467.623 39.575C467.248 39.2 467.061 38.7 467.061 38.075C467.061 37.575 467.236 37.0625 467.586 36.5375C467.936 36.0125 468.598 35.4375 469.573 34.8125C470.548 34.1625 471.961 33.4125 473.811 32.5625ZM475.723 21.875C474.923 21.875 474.248 22.1125 473.698 22.5875C473.148 23.0375 472.686 23.625 472.311 24.35C471.961 25.05 471.686 25.7875 471.486 26.5625C471.311 27.3375 471.186 28.05 471.111 28.7C471.036 29.325 470.998 29.7875 470.998 30.0875C470.998 30.8875 471.173 31.4625 471.523 31.8125C471.898 32.1625 472.386 32.3375 472.986 32.3375C473.936 32.3375 474.698 32.05 475.273 31.475C475.873 30.9 476.336 30.1875 476.661 29.3375C476.986 28.4875 477.198 27.6375 477.298 26.7875C477.423 25.9375 477.486 25.225 477.486 24.65C477.486 23.8 477.373 23.125 477.148 22.625C476.923 22.125 476.448 21.875 475.723 21.875ZM475.873 21.2C477.348 21.2 478.536 21.5375 479.436 22.2125C480.361 22.8625 480.823 23.925 480.823 25.4C480.823 26.6 480.486 27.7875 479.811 28.9625C479.136 30.1375 478.186 31.1125 476.961 31.8875C475.736 32.6375 474.286 33.0125 472.611 33.0125C471.236 33.0125 470.073 32.6875 469.123 32.0375C468.198 31.3625 467.736 30.325 467.736 28.925C467.736 28.25 467.873 27.475 468.148 26.6C468.448 25.7 468.911 24.85 469.536 24.05C470.161 23.225 470.986 22.55 472.011 22.025C473.061 21.475 474.348 21.2 475.873 21.2ZM478.536 23.15L477.861 22.8875C478.211 22.0375 478.811 21.2875 479.661 20.6375C480.511 19.9875 481.398 19.6625 482.323 19.6625C482.973 19.6625 483.498 19.85 483.898 20.225C484.298 20.575 484.498 21.1375 484.498 21.9125C484.498 22.6125 484.323 23.125 483.973 23.45C483.623 23.775 483.248 23.9375 482.848 23.9375C482.448 23.9375 482.061 23.8125 481.686 23.5625C481.336 23.2875 481.123 22.8625 481.048 22.2875C480.973 21.7125 481.136 20.975 481.536 20.075L482.023 20.1875C480.973 20.5875 480.223 21.0125 479.773 21.4625C479.323 21.8875 478.911 22.45 478.536 23.15Z" fill="#AA7821"/>
<path d="M497.471 8.81C499.271 8.81 500.621 9.08 501.521 9.62C502.421 10.16 502.991 10.91 503.231 11.87C503.501 12.8 503.546 13.895 503.366 15.155C503.186 16.415 502.916 17.765 502.556 19.205C502.076 21.215 501.701 22.895 501.431 24.245C501.191 25.565 501.071 26.645 501.071 27.485C501.101 28.415 501.281 29.075 501.611 29.465C501.971 29.855 502.496 30.08 503.186 30.14H503.411L503.276 30.95H503.051C502.121 31.01 501.326 31.37 500.666 32.03C500.006 32.69 499.391 33.8 498.821 35.36C498.251 36.89 497.606 39.065 496.886 41.885C496.196 44.645 495.416 46.79 494.546 48.32C493.676 49.85 492.611 50.915 491.351 51.515C490.121 52.145 488.561 52.46 486.671 52.46L486.896 51.605C487.616 51.605 488.246 51.5 488.786 51.29C489.296 51.11 489.761 50.69 490.181 50.03C490.571 49.4 490.976 48.44 491.396 47.15C491.816 45.86 492.296 44.105 492.836 41.885C493.496 39.185 494.321 37.085 495.311 35.585C496.301 34.055 497.366 32.915 498.506 32.165C499.676 31.415 500.861 30.875 502.061 30.545C500.711 30.125 499.706 29.51 499.046 28.7C498.386 27.89 497.981 26.96 497.831 25.91C497.681 24.83 497.681 23.72 497.831 22.58C498.011 21.41 498.236 20.285 498.506 19.205C498.956 17.375 499.286 15.875 499.496 14.705C499.736 13.535 499.841 12.605 499.811 11.915C499.811 10.985 499.586 10.385 499.136 10.115C498.716 9.845 498.086 9.695 497.246 9.665L497.471 8.81Z" fill="#C8B2B3"/>
<path d="M527.135 22.4C526.485 22.4 525.748 22.8625 524.923 23.7875C524.123 24.6875 523.298 25.925 522.448 27.5C521.623 29.05 520.835 30.8 520.085 32.75C519.36 34.7 518.748 36.725 518.248 38.825L518.923 34.775C519.998 31.5 521.035 28.875 522.035 26.9C523.035 24.9 524.035 23.45 525.035 22.55C526.06 21.65 527.123 21.2 528.223 21.2C529.398 21.2 530.335 21.6375 531.035 22.5125C531.76 23.3875 532.123 24.7125 532.123 26.4875C532.123 27.6125 531.96 28.85 531.635 30.2C531.335 31.55 530.873 32.8875 530.248 34.2125C529.648 35.5375 528.898 36.7625 527.998 37.8875C527.123 38.9875 526.11 39.875 524.96 40.55C523.81 41.2 522.535 41.525 521.135 41.525C520.385 41.525 519.71 41.3 519.11 40.85C518.535 40.4 518.148 39.75 517.948 38.9L518.248 38.15C518.598 39.075 518.998 39.725 519.448 40.1C519.923 40.475 520.473 40.6625 521.098 40.6625C521.948 40.6625 522.76 40.3375 523.535 39.6875C524.31 39.0125 525.023 38.125 525.673 37.025C526.323 35.925 526.885 34.7125 527.36 33.3875C527.86 32.0375 528.235 30.7 528.485 29.375C528.76 28.025 528.898 26.7875 528.898 25.6625C528.898 24.5625 528.735 23.75 528.41 23.225C528.11 22.675 527.685 22.4 527.135 22.4ZM521.51 15.9875C522.11 15.9625 522.698 15.9125 523.273 15.8375C523.873 15.7625 524.423 15.6375 524.923 15.4625L516.673 44.3C516.373 45.35 516.523 46.0625 517.123 46.4375C517.723 46.8125 518.585 47 519.71 47L519.485 47.7875C518.985 47.7625 518.273 47.725 517.348 47.675C516.448 47.65 515.485 47.6375 514.46 47.6375C513.685 47.6375 512.898 47.65 512.098 47.675C511.298 47.725 510.698 47.7625 510.298 47.7875L510.523 47C511.423 47 512.073 46.825 512.473 46.475C512.873 46.15 513.198 45.55 513.448 44.675L521.51 15.9875ZM513.71 27.6125C514.685 26.6625 515.598 25.725 516.448 24.8C517.298 23.85 518.123 22.725 518.923 21.425C519.723 20.125 520.535 18.4875 521.36 16.5125L521.473 17.1125C520.923 18.8125 520.26 20.3125 519.485 21.6125C518.735 22.8875 517.91 24.05 517.01 25.1C516.11 26.125 515.148 27.125 514.123 28.1L513.71 27.6125ZM538.077 41H534.814L539.314 24.9125C539.564 24.0625 539.639 23.4625 539.539 23.1125C539.464 22.7625 539.214 22.5875 538.789 22.5875C538.239 22.5875 537.739 22.875 537.289 23.45C536.839 24.025 536.364 25.0125 535.864 26.4125L535.377 27.8H534.664L535.602 25.0625C535.977 24.0125 536.414 23.2125 536.914 22.6625C537.439 22.1125 537.977 21.7375 538.527 21.5375C539.102 21.3125 539.639 21.2 540.139 21.2C540.889 21.2 541.414 21.3625 541.714 21.6875C542.039 22.0125 542.214 22.4375 542.239 22.9625C542.289 23.4875 542.252 24.0625 542.127 24.6875C542.027 25.2875 541.902 25.875 541.752 26.45L538.077 41ZM547.714 22.1375C547.139 22.1375 546.539 22.4125 545.914 22.9625C545.314 23.4875 544.689 24.2625 544.039 25.2875C543.414 26.2875 542.777 27.5 542.127 28.925C541.502 30.325 540.877 31.8875 540.252 33.6125C539.652 35.3375 539.064 37.2 538.489 39.2L539.427 34.4C540.252 31.95 541.014 29.8875 541.714 28.2125C542.439 26.5375 543.152 25.1875 543.852 24.1625C544.552 23.1125 545.264 22.3625 545.989 21.9125C546.739 21.4375 547.527 21.2 548.352 21.2C549.052 21.2 549.589 21.4 549.964 21.8C550.364 22.2 550.564 22.7125 550.564 23.3375C550.564 23.8375 550.439 24.3 550.189 24.725C549.939 25.125 549.614 25.45 549.214 25.7C548.839 25.925 548.414 26.0375 547.939 26.0375C547.514 26.0375 547.152 25.925 546.852 25.7C546.577 25.45 546.439 25.1125 546.439 24.6875C546.439 24.2875 546.514 23.9375 546.664 23.6375C546.814 23.3125 547.014 23.0375 547.264 22.8125C547.514 22.5875 547.802 22.4125 548.127 22.2875C548.077 22.2375 548.014 22.2 547.939 22.175C547.889 22.15 547.814 22.1375 547.714 22.1375ZM556.594 14.9C556.719 14.25 557.044 13.6875 557.569 13.2125C558.119 12.7375 558.706 12.5 559.331 12.5C559.981 12.5 560.481 12.7375 560.831 13.2125C561.206 13.6875 561.331 14.25 561.206 14.9C561.081 15.55 560.744 16.1125 560.194 16.5875C559.669 17.0625 559.081 17.3 558.431 17.3C557.806 17.3 557.306 17.0625 556.931 16.5875C556.581 16.1125 556.469 15.55 556.594 14.9ZM555.431 24.9125C555.956 23.3625 555.781 22.5875 554.906 22.5875C554.331 22.5875 553.819 22.9 553.369 23.525C552.919 24.15 552.444 25.1125 551.944 26.4125L551.419 27.8H550.706L551.681 25.0625C552.056 24.0125 552.506 23.2125 553.031 22.6625C553.556 22.1125 554.106 21.7375 554.681 21.5375C555.281 21.3125 555.831 21.2 556.331 21.2C557.131 21.2 557.719 21.3625 558.094 21.6875C558.469 22.0125 558.694 22.4375 558.769 22.9625C558.844 23.4875 558.819 24.0625 558.694 24.6875C558.569 25.2875 558.406 25.875 558.206 26.45L554.194 37.8125C553.944 38.5375 553.856 39.1125 553.931 39.5375C554.031 39.9375 554.319 40.1375 554.794 40.1375C555.294 40.1375 555.769 39.8625 556.219 39.3125C556.669 38.7625 557.169 37.7625 557.719 36.3125L558.244 34.925H558.956L557.981 37.6625C557.631 38.6375 557.206 39.4125 556.706 39.9875C556.206 40.5375 555.669 40.925 555.094 41.15C554.519 41.4 553.944 41.525 553.369 41.525C552.294 41.525 551.569 41.275 551.194 40.775C550.819 40.275 550.681 39.625 550.781 38.825C550.881 38.025 551.094 37.175 551.419 36.275L555.431 24.9125ZM565.397 41H562.135L566.635 24.9125C566.735 24.6125 566.81 24.2875 566.86 23.9375C566.935 23.5625 566.922 23.25 566.822 23C566.722 22.725 566.472 22.5875 566.072 22.5875C565.522 22.5875 565.035 22.8625 564.61 23.4125C564.185 23.9375 563.71 24.9375 563.185 26.4125L562.697 27.8H561.985L562.922 25.0625C563.472 23.4875 564.147 22.45 564.947 21.95C565.772 21.45 566.585 21.2 567.385 21.2C568.135 21.2 568.672 21.3625 568.997 21.6875C569.347 22.0125 569.535 22.4375 569.56 22.9625C569.61 23.4625 569.572 24.025 569.447 24.65C569.347 25.25 569.222 25.85 569.072 26.45L565.397 41ZM567.122 33.2C567.997 30.95 568.847 29.0625 569.672 27.5375C570.497 26.0125 571.31 24.7875 572.11 23.8625C572.91 22.9125 573.722 22.2375 574.547 21.8375C575.397 21.4125 576.272 21.2 577.172 21.2C578.347 21.2 579.147 21.4875 579.572 22.0625C580.022 22.6125 580.222 23.325 580.172 24.2C580.122 25.05 579.947 25.9375 579.647 26.8625L576.01 37.8125C575.785 38.4875 575.685 39.05 575.71 39.5C575.76 39.925 576.06 40.1375 576.61 40.1375C577.085 40.1375 577.547 39.875 577.997 39.35C578.472 38.825 578.972 37.8125 579.497 36.3125L579.985 34.925H580.697L579.76 37.6625C579.41 38.7125 578.972 39.5125 578.447 40.0625C577.947 40.6125 577.41 40.9875 576.835 41.1875C576.285 41.4125 575.747 41.525 575.222 41.525C574.622 41.525 574.122 41.425 573.722 41.225C573.347 41.025 573.06 40.7625 572.86 40.4375C572.585 39.9875 572.497 39.4 572.597 38.675C572.697 37.95 572.897 37.15 573.197 36.275L576.76 25.55C576.885 25.2 576.985 24.7875 577.06 24.3125C577.16 23.8125 577.147 23.375 577.022 23C576.897 22.6 576.535 22.4 575.935 22.4C575.335 22.4 574.697 22.6625 574.022 23.1875C573.347 23.7125 572.647 24.4625 571.922 25.4375C571.197 26.3875 570.485 27.5375 569.785 28.8875C569.085 30.2125 568.41 31.6875 567.76 33.3125C567.135 34.9125 566.56 36.625 566.035 38.45L567.122 33.2ZM594.688 21.95C593.738 21.95 592.788 22.3375 591.838 23.1125C590.913 23.8875 590.063 24.95 589.288 26.3C588.513 27.65 587.888 29.1875 587.413 30.9125C586.963 32.6375 586.738 34.45 586.738 36.35C586.738 37.625 586.975 38.55 587.45 39.125C587.95 39.675 588.588 39.95 589.363 39.95C590.263 39.95 591.188 39.675 592.138 39.125C593.088 38.575 594.038 37.6 594.988 36.2L595.738 36.5C595.263 37.325 594.638 38.125 593.863 38.9C593.088 39.675 592.213 40.3125 591.238 40.8125C590.288 41.2875 589.275 41.525 588.2 41.525C586.7 41.525 585.5 41.0625 584.6 40.1375C583.7 39.2125 583.25 37.8375 583.25 36.0125C583.25 34.8625 583.413 33.625 583.738 32.3C584.088 30.95 584.575 29.625 585.2 28.325C585.85 27 586.638 25.8125 587.563 24.7625C588.488 23.6875 589.538 22.825 590.713 22.175C591.888 21.525 593.175 21.2 594.575 21.2C595.675 21.2 596.625 21.4875 597.425 22.0625C598.225 22.6125 598.625 23.3875 598.625 24.3875C598.625 24.8625 598.513 25.3375 598.288 25.8125C598.088 26.2625 597.788 26.6375 597.388 26.9375C596.988 27.2375 596.513 27.3875 595.963 27.3875C595.438 27.3875 595.05 27.25 594.8 26.975C594.55 26.675 594.425 26.325 594.425 25.925C594.425 25.2 594.713 24.5875 595.288 24.0875C595.863 23.5625 596.513 23.2375 597.238 23.1125C596.988 22.7625 596.663 22.4875 596.263 22.2875C595.863 22.0625 595.338 21.95 594.688 21.95ZM605.849 14.9C605.974 14.25 606.299 13.6875 606.824 13.2125C607.374 12.7375 607.962 12.5 608.587 12.5C609.237 12.5 609.737 12.7375 610.087 13.2125C610.462 13.6875 610.587 14.25 610.462 14.9C610.337 15.55 609.999 16.1125 609.449 16.5875C608.924 17.0625 608.337 17.3 607.687 17.3C607.062 17.3 606.562 17.0625 606.187 16.5875C605.837 16.1125 605.724 15.55 605.849 14.9ZM604.687 24.9125C605.212 23.3625 605.037 22.5875 604.162 22.5875C603.587 22.5875 603.074 22.9 602.624 23.525C602.174 24.15 601.699 25.1125 601.199 26.4125L600.674 27.8H599.962L600.937 25.0625C601.312 24.0125 601.762 23.2125 602.287 22.6625C602.812 22.1125 603.362 21.7375 603.937 21.5375C604.537 21.3125 605.087 21.2 605.587 21.2C606.387 21.2 606.974 21.3625 607.349 21.6875C607.724 22.0125 607.949 22.4375 608.024 22.9625C608.099 23.4875 608.074 24.0625 607.949 24.6875C607.824 25.2875 607.662 25.875 607.462 26.45L603.449 37.8125C603.199 38.5375 603.112 39.1125 603.187 39.5375C603.287 39.9375 603.574 40.1375 604.049 40.1375C604.549 40.1375 605.024 39.8625 605.474 39.3125C605.924 38.7625 606.424 37.7625 606.974 36.3125L607.499 34.925H608.212L607.237 37.6625C606.887 38.6375 606.462 39.4125 605.962 39.9875C605.462 40.5375 604.924 40.925 604.349 41.15C603.774 41.4 603.199 41.525 602.624 41.525C601.549 41.525 600.824 41.275 600.449 40.775C600.074 40.275 599.937 39.625 600.037 38.825C600.137 38.025 600.349 37.175 600.674 36.275L604.687 24.9125ZM624.328 22.4C623.678 22.4 622.94 22.8625 622.115 23.7875C621.315 24.6875 620.49 25.925 619.64 27.5C618.815 29.05 618.028 30.8 617.278 32.75C616.553 34.7 615.94 36.725 615.44 38.825L616.115 34.775C617.19 31.5 618.228 28.875 619.228 26.9C620.228 24.9 621.228 23.45 622.228 22.55C623.253 21.65 624.315 21.2 625.415 21.2C626.59 21.2 627.528 21.6375 628.228 22.5125C628.953 23.3875 629.315 24.7125 629.315 26.4875C629.315 27.6125 629.153 28.85 628.828 30.2C628.528 31.55 628.065 32.8875 627.44 34.2125C626.84 35.5375 626.09 36.7625 625.19 37.8875C624.315 38.9875 623.303 39.875 622.153 40.55C621.003 41.2 619.728 41.525 618.328 41.525C617.578 41.525 616.903 41.3 616.303 40.85C615.728 40.4 615.34 39.75 615.14 38.9L615.44 38.15C615.79 39.075 616.19 39.725 616.64 40.1C617.115 40.475 617.665 40.6625 618.29 40.6625C619.14 40.6625 619.953 40.3375 620.728 39.6875C621.503 39.0125 622.215 38.125 622.865 37.025C623.515 35.925 624.078 34.7125 624.553 33.3875C625.053 32.0375 625.428 30.7 625.678 29.375C625.953 28.025 626.09 26.7875 626.09 25.6625C626.09 24.5625 625.928 23.75 625.603 23.225C625.303 22.675 624.878 22.4 624.328 22.4ZM618.703 15.9875C619.303 15.9625 619.89 15.9125 620.465 15.8375C621.065 15.7625 621.615 15.6375 622.115 15.4625L613.865 44.3C613.565 45.35 613.715 46.0625 614.315 46.4375C614.915 46.8125 615.778 47 616.903 47L616.678 47.7875C616.178 47.7625 615.465 47.725 614.54 47.675C613.64 47.65 612.678 47.6375 611.653 47.6375C610.878 47.6375 610.09 47.65 609.29 47.675C608.49 47.725 607.89 47.7625 607.49 47.7875L607.715 47C608.615 47 609.265 46.825 609.665 46.475C610.065 46.15 610.39 45.55 610.64 44.675L618.703 15.9875ZM610.903 27.6125C611.878 26.6625 612.79 25.725 613.64 24.8C614.49 23.85 615.315 22.725 616.115 21.425C616.915 20.125 617.728 18.4875 618.553 16.5125L618.665 17.1125C618.115 18.8125 617.453 20.3125 616.678 21.6125C615.928 22.8875 615.103 24.05 614.203 25.1C613.303 26.125 612.34 27.125 611.315 28.1L610.903 27.6125ZM634.557 37.8125C634.357 38.5375 634.294 39.1125 634.369 39.5375C634.444 39.9375 634.719 40.1375 635.194 40.1375C635.694 40.1375 636.157 39.8625 636.582 39.3125C637.032 38.7375 637.507 37.7375 638.007 36.3125L638.494 34.925H639.207L638.269 37.6625C637.944 38.6125 637.544 39.375 637.069 39.95C636.619 40.5 636.119 40.9 635.569 41.15C635.019 41.4 634.419 41.525 633.769 41.525C632.944 41.525 632.332 41.3625 631.932 41.0375C631.557 40.7375 631.319 40.325 631.219 39.8C631.144 39.275 631.157 38.7125 631.257 38.1125C631.382 37.4875 631.532 36.875 631.707 36.275L637.819 15.9875C638.069 15.1375 638.044 14.5125 637.744 14.1125C637.444 13.7125 636.682 13.5125 635.457 13.5125L635.719 12.725C637.094 12.7 638.307 12.5625 639.357 12.3125C640.407 12.0375 641.419 11.6625 642.394 11.1875L634.557 37.8125ZM644.282 32.4875C645.682 32.0125 646.945 31.55 648.07 31.1C649.22 30.625 650.132 30.125 650.807 29.6C651.707 28.875 652.42 28 652.945 26.975C653.47 25.95 653.732 24.825 653.732 23.6C653.732 22.875 653.682 22.4125 653.582 22.2125C653.482 22.0125 653.332 21.9125 653.132 21.9125C652.507 21.9125 651.832 22.1875 651.107 22.7375C650.382 23.2875 649.67 24.05 648.97 25.025C648.27 25.975 647.62 27.0625 647.02 28.2875C646.445 29.5125 645.982 30.825 645.632 32.225C645.282 33.6 645.107 34.975 645.107 36.35C645.107 37.625 645.345 38.55 645.82 39.125C646.295 39.675 646.92 39.95 647.695 39.95C648.595 39.95 649.545 39.675 650.545 39.125C651.545 38.575 652.52 37.6 653.47 36.2L654.07 36.5C653.595 37.325 652.97 38.125 652.195 38.9C651.42 39.675 650.545 40.3125 649.57 40.8125C648.62 41.2875 647.607 41.525 646.532 41.525C645.532 41.525 644.657 41.325 643.907 40.925C643.157 40.525 642.582 39.9375 642.182 39.1625C641.782 38.3625 641.582 37.3875 641.582 36.2375C641.582 35.1625 641.782 33.9625 642.182 32.6375C642.582 31.2875 643.145 29.95 643.87 28.625C644.62 27.275 645.507 26.0375 646.532 24.9125C647.557 23.7875 648.695 22.8875 649.945 22.2125C651.195 21.5375 652.532 21.2 653.957 21.2C654.732 21.2 655.382 21.4125 655.907 21.8375C656.457 22.2375 656.732 22.85 656.732 23.675C656.732 24.675 656.432 25.6125 655.832 26.4875C655.257 27.3375 654.482 28.125 653.507 28.85C652.557 29.55 651.52 30.175 650.395 30.725C649.27 31.275 648.17 31.75 647.095 32.15C646.02 32.55 645.07 32.875 644.245 33.125L644.282 32.4875ZM659.421 40.4375C659.621 40.5375 659.834 40.625 660.059 40.7C660.309 40.75 660.671 40.775 661.146 40.775C662.246 40.775 663.146 40.45 663.846 39.8C664.571 39.125 664.934 38.1625 664.934 36.9125C664.934 36.1375 664.784 35.375 664.484 34.625C664.209 33.85 663.709 32.9625 662.984 31.9625C662.409 31.1625 661.859 30.35 661.334 29.525C660.809 28.675 660.546 27.675 660.546 26.525C660.546 25.45 660.809 24.525 661.334 23.75C661.859 22.95 662.559 22.325 663.434 21.875C664.334 21.425 665.309 21.2 666.359 21.2C667.084 21.2 667.796 21.2875 668.496 21.4625C669.196 21.6375 669.771 21.9625 670.221 22.4375C670.696 22.8875 670.934 23.5625 670.934 24.4625C670.934 24.6875 670.871 24.9625 670.746 25.2875C670.646 25.5875 670.471 25.85 670.221 26.075C669.971 26.3 669.634 26.4125 669.209 26.4125C668.809 26.4125 668.459 26.275 668.159 26C667.859 25.7 667.709 25.3125 667.709 24.8375C667.709 24.3875 667.796 23.9625 667.971 23.5625C668.171 23.1375 668.434 22.725 668.759 22.325C668.284 22.025 667.659 21.875 666.884 21.875C665.959 21.875 665.184 22.1875 664.559 22.8125C663.934 23.4375 663.621 24.3125 663.621 25.4375C663.621 26.0125 663.709 26.525 663.884 26.975C664.059 27.4 664.309 27.85 664.634 28.325C664.984 28.8 665.396 29.4 665.871 30.125C666.496 31.075 667.021 31.9875 667.446 32.8625C667.871 33.7375 668.084 34.6625 668.084 35.6375C668.084 36.7875 667.784 37.8125 667.184 38.7125C666.609 39.5875 665.834 40.275 664.859 40.775C663.884 41.275 662.809 41.525 661.634 41.525C660.784 41.525 659.971 41.4 659.196 41.15C658.421 40.9 657.784 40.5125 657.284 39.9875C656.809 39.4375 656.571 38.7125 656.571 37.8125C656.571 37.4625 656.684 37.1 656.909 36.725C657.109 36.325 657.484 36.125 658.034 36.125C658.634 36.125 659.059 36.375 659.309 36.875C659.559 37.35 659.684 37.8875 659.684 38.4875C659.684 38.8875 659.646 39.25 659.571 39.575C659.521 39.875 659.471 40.1625 659.421 40.4375Z" fill="#AA7821"/>
<path d="M119 32.7317C144 112.231 221.5 38.7311 296.5 66.7313C353.5 80.7313 394.615 73.6965 414.342 51.3933M414.342 51.3933L394.381 53.3364M414.342 51.3933C414.342 51.3933 412.001 62.5812 410.501 69.7498" stroke="#C8B2B3" stroke-width="2" stroke-linecap="round"/>
<path d="M124.5 41L126.5 48L125.5 50L121 42L121.5 41.5L124.5 41Z" fill="#C8B2B3"/>
</svg>
