<svg width="767" height="50" viewBox="0 0 767 50" fill="none" xmlns="http://www.w3.org/2000/svg">
<path d="M125.332 7.01339C125.317 6.94423 125.284 6.88058 125.234 6.82989C125.185 6.77919 125.123 6.74357 125.054 6.72719C120.474 5.60741 109.892 9.5978 104.158 15.3289C103.136 16.3432 102.203 17.4447 101.372 18.6209C99.604 18.4645 97.8359 18.5951 96.3291 19.252C92.0775 21.1232 90.8397 26.0059 90.4948 28.1062C90.4753 28.2212 90.4826 28.3391 90.5164 28.4507C90.5501 28.5624 90.6093 28.6647 90.6892 28.7495C90.7692 28.8344 90.8678 28.8996 90.9772 28.9399C91.0866 28.9803 91.2039 28.9947 91.3198 28.982L98.1472 28.229C98.152 28.7437 98.1831 29.2579 98.2402 29.7695C98.2746 30.1247 98.4323 30.4567 98.6859 30.7078L101.33 33.3454C101.581 33.5988 101.913 33.7564 102.268 33.7911C102.777 33.8481 103.288 33.8791 103.8 33.8842L103.051 40.703C103.038 40.8189 103.053 40.9361 103.093 41.0454C103.134 41.1547 103.199 41.2532 103.284 41.3331C103.369 41.4131 103.471 41.4723 103.582 41.506C103.694 41.5398 103.812 41.5473 103.927 41.5279C106.023 41.1917 110.914 39.9538 112.775 35.7023C113.432 34.1954 113.566 32.436 113.414 30.6766C114.593 29.8452 115.698 28.9127 116.715 27.8896C122.466 22.1672 126.434 11.8209 125.332 7.01339ZM110.977 21.063C110.452 20.5382 110.094 19.8694 109.949 19.1412C109.804 18.4131 109.878 17.6583 110.162 16.9723C110.446 16.2863 110.927 15.6999 111.545 15.2874C112.162 14.8748 112.888 14.6546 113.63 14.6546C114.373 14.6546 115.098 14.8748 115.716 15.2874C116.333 15.6999 116.814 16.2863 117.098 16.9723C117.382 17.6583 117.456 18.4131 117.311 19.1412C117.166 19.8694 116.809 20.5382 116.283 21.063C115.935 21.4118 115.522 21.6884 115.066 21.8772C114.611 22.066 114.123 22.1631 113.63 22.1631C113.137 22.1631 112.649 22.066 112.194 21.8772C111.739 21.6884 111.325 21.4118 110.977 21.063Z" fill="#3E41FF"/>
<path d="M101.15 35.2558C100.721 35.6851 100.034 35.8524 99.2068 35.9955C97.3481 36.3122 95.7067 34.7061 96.0406 32.827C96.1681 32.1146 96.545 31.116 96.7796 30.8814C96.8309 30.8312 96.865 30.766 96.8771 30.6952C96.8893 30.6244 96.8788 30.5516 96.8472 30.4871C96.8156 30.4226 96.7645 30.3697 96.7011 30.3359C96.6377 30.3021 96.5653 30.2892 96.4942 30.2989C95.4547 30.4261 94.4877 30.8973 93.7471 31.6376C91.9087 33.4776 91.7351 40.305 91.7351 40.305C91.7351 40.305 98.5664 40.1314 100.405 38.2914C101.147 37.5514 101.619 36.5829 101.744 35.542C101.773 35.2151 101.375 35.0204 101.15 35.2558Z" fill="#3E41FF"/>
<path d="M136.811 40.0385H133.549L140.974 15.026C141.224 14.176 141.186 13.551 140.861 13.151C140.561 12.751 139.799 12.551 138.574 12.551L138.799 11.7635C140.174 11.7385 141.411 11.601 142.511 11.351C143.611 11.076 144.624 10.701 145.549 10.226L136.811 40.0385ZM137.861 34.4885C138.811 31.8635 139.711 29.6385 140.561 27.8135C141.436 25.9885 142.299 24.526 143.149 23.426C143.999 22.301 144.874 21.4885 145.774 20.9885C146.674 20.4885 147.611 20.2385 148.586 20.2385C149.761 20.2385 150.561 20.526 150.986 21.101C151.436 21.651 151.636 22.3635 151.586 23.2385C151.536 24.1135 151.361 25.001 151.061 25.901L147.424 36.851C147.224 37.501 147.136 38.051 147.161 38.501C147.186 38.951 147.474 39.176 148.024 39.176C148.499 39.176 148.961 38.9135 149.411 38.3885C149.886 37.8635 150.386 36.851 150.911 35.351L151.399 33.9635H152.111L151.174 36.701C150.824 37.751 150.386 38.551 149.861 39.101C149.361 39.651 148.824 40.026 148.249 40.226C147.699 40.451 147.161 40.5635 146.636 40.5635C145.636 40.5635 144.936 40.3385 144.536 39.8885C144.136 39.4385 143.961 38.8135 144.011 38.0135C144.086 37.2135 144.286 36.3135 144.611 35.3135L148.174 24.5885C148.299 24.2135 148.411 23.776 148.511 23.276C148.611 22.776 148.586 22.351 148.436 22.001C148.311 21.626 147.949 21.4385 147.349 21.4385C146.724 21.4385 146.049 21.726 145.324 22.301C144.624 22.851 143.899 23.651 143.149 24.701C142.399 25.751 141.661 27.0135 140.936 28.4885C140.211 29.9635 139.511 31.6135 138.836 33.4385C138.186 35.2385 137.574 37.1885 136.999 39.2885L137.861 34.4885ZM161.079 13.9385C161.204 13.2885 161.529 12.726 162.054 12.251C162.604 11.776 163.191 11.5385 163.816 11.5385C164.466 11.5385 164.966 11.776 165.316 12.251C165.691 12.726 165.816 13.2885 165.691 13.9385C165.566 14.5885 165.229 15.151 164.679 15.626C164.154 16.101 163.566 16.3385 162.916 16.3385C162.291 16.3385 161.791 16.101 161.416 15.626C161.066 15.151 160.954 14.5885 161.079 13.9385ZM159.916 23.951C160.441 22.401 160.266 21.626 159.391 21.626C158.816 21.626 158.304 21.9385 157.854 22.5635C157.404 23.1885 156.929 24.151 156.429 25.451L155.904 26.8385H155.191L156.166 24.101C156.541 23.051 156.991 22.251 157.516 21.701C158.041 21.151 158.591 20.776 159.166 20.576C159.766 20.351 160.316 20.2385 160.816 20.2385C161.616 20.2385 162.204 20.401 162.579 20.726C162.954 21.051 163.179 21.476 163.254 22.001C163.329 22.526 163.304 23.101 163.179 23.726C163.054 24.326 162.891 24.9135 162.691 25.4885L158.679 36.851C158.429 37.576 158.341 38.151 158.416 38.576C158.516 38.976 158.804 39.176 159.279 39.176C159.779 39.176 160.254 38.901 160.704 38.351C161.154 37.801 161.654 36.801 162.204 35.351L162.729 33.9635H163.441L162.466 36.701C162.116 37.676 161.691 38.451 161.191 39.026C160.691 39.576 160.154 39.9635 159.579 40.1885C159.004 40.4385 158.429 40.5635 157.854 40.5635C156.779 40.5635 156.054 40.3135 155.679 39.8135C155.304 39.3135 155.166 38.6635 155.266 37.8635C155.366 37.0635 155.579 36.2135 155.904 35.3135L159.916 23.951ZM173.407 31.601L174.345 31.6385C173.445 32.1385 172.607 32.601 171.832 33.026C171.082 33.426 170.47 33.801 169.995 34.151C169.52 34.501 169.282 34.8385 169.282 35.1635C169.282 35.4135 169.457 35.651 169.807 35.876C170.157 36.076 170.732 36.276 171.532 36.476L174.27 37.1885C175.07 37.3885 175.782 37.626 176.407 37.901C177.057 38.151 177.57 38.476 177.945 38.876C178.32 39.276 178.507 39.801 178.507 40.451C178.507 41.076 178.295 41.776 177.87 42.551C177.47 43.351 176.832 44.1135 175.957 44.8385C175.107 45.5635 173.995 46.1635 172.62 46.6385C171.245 47.1135 169.582 47.351 167.632 47.351C166.332 47.351 165.245 47.226 164.37 46.976C163.47 46.751 162.807 46.426 162.382 46.001C161.932 45.576 161.707 45.0885 161.707 44.5385C161.707 44.1385 161.82 43.7135 162.045 43.2635C162.27 42.8385 162.607 42.4135 163.057 41.9885C163.482 41.5885 164.032 41.201 164.707 40.826C165.357 40.476 166.132 40.176 167.032 39.926L167.295 40.4885C166.37 40.9635 165.732 41.501 165.382 42.101C165.032 42.701 164.857 43.301 164.857 43.901C164.857 44.901 165.207 45.6135 165.907 46.0385C166.607 46.4885 167.47 46.7135 168.495 46.7135C169.32 46.7135 170.17 46.576 171.045 46.301C171.92 46.051 172.732 45.701 173.482 45.251C174.232 44.826 174.832 44.326 175.282 43.751C175.732 43.176 175.957 42.576 175.957 41.951C175.957 41.576 175.832 41.326 175.582 41.201C175.357 41.076 174.97 40.951 174.42 40.826L168.682 39.3635C168.082 39.2135 167.595 38.9635 167.22 38.6135C166.845 38.2385 166.657 37.7385 166.657 37.1135C166.657 36.6135 166.832 36.101 167.182 35.576C167.532 35.051 168.195 34.476 169.17 33.851C170.145 33.201 171.557 32.451 173.407 31.601ZM175.32 20.9135C174.52 20.9135 173.845 21.151 173.295 21.626C172.745 22.076 172.282 22.6635 171.907 23.3885C171.557 24.0885 171.282 24.826 171.082 25.601C170.907 26.376 170.782 27.0885 170.707 27.7385C170.632 28.3635 170.595 28.826 170.595 29.126C170.595 29.926 170.77 30.501 171.12 30.851C171.495 31.201 171.982 31.376 172.582 31.376C173.532 31.376 174.295 31.0885 174.87 30.5135C175.47 29.9385 175.932 29.226 176.257 28.376C176.582 27.526 176.795 26.676 176.895 25.826C177.02 24.976 177.082 24.2635 177.082 23.6885C177.082 22.8385 176.97 22.1635 176.745 21.6635C176.52 21.1635 176.045 20.9135 175.32 20.9135ZM175.47 20.2385C176.945 20.2385 178.132 20.576 179.032 21.251C179.957 21.901 180.42 22.9635 180.42 24.4385C180.42 25.6385 180.082 26.826 179.407 28.001C178.732 29.176 177.782 30.151 176.557 30.926C175.332 31.676 173.882 32.051 172.207 32.051C170.832 32.051 169.67 31.726 168.72 31.076C167.795 30.401 167.332 29.3635 167.332 27.9635C167.332 27.2885 167.47 26.5135 167.745 25.6385C168.045 24.7385 168.507 23.8885 169.132 23.0885C169.757 22.2635 170.582 21.5885 171.607 21.0635C172.657 20.5135 173.945 20.2385 175.47 20.2385ZM178.132 22.1885L177.457 21.926C177.807 21.076 178.407 20.326 179.257 19.676C180.107 19.026 180.995 18.701 181.92 18.701C182.57 18.701 183.095 18.8885 183.495 19.2635C183.895 19.6135 184.095 20.176 184.095 20.951C184.095 21.651 183.92 22.1635 183.57 22.4885C183.22 22.8135 182.845 22.976 182.445 22.976C182.045 22.976 181.657 22.851 181.282 22.601C180.932 22.326 180.72 21.901 180.645 21.326C180.57 20.751 180.732 20.0135 181.132 19.1135L181.62 19.226C180.57 19.626 179.82 20.051 179.37 20.501C178.92 20.926 178.507 21.4885 178.132 22.1885ZM185.078 40.0385H181.816L189.241 15.026C189.491 14.176 189.453 13.551 189.128 13.151C188.828 12.751 188.066 12.551 186.841 12.551L187.066 11.7635C188.441 11.7385 189.678 11.601 190.778 11.351C191.878 11.076 192.891 10.701 193.816 10.226L185.078 40.0385ZM186.128 34.4885C187.078 31.8635 187.978 29.6385 188.828 27.8135C189.703 25.9885 190.566 24.526 191.416 23.426C192.266 22.301 193.141 21.4885 194.041 20.9885C194.941 20.4885 195.878 20.2385 196.853 20.2385C198.028 20.2385 198.828 20.526 199.253 21.101C199.703 21.651 199.903 22.3635 199.853 23.2385C199.803 24.1135 199.628 25.001 199.328 25.901L195.691 36.851C195.491 37.501 195.403 38.051 195.428 38.501C195.453 38.951 195.741 39.176 196.291 39.176C196.766 39.176 197.228 38.9135 197.678 38.3885C198.153 37.8635 198.653 36.851 199.178 35.351L199.666 33.9635H200.378L199.441 36.701C199.091 37.751 198.653 38.551 198.128 39.101C197.628 39.651 197.091 40.026 196.516 40.226C195.966 40.451 195.428 40.5635 194.903 40.5635C193.903 40.5635 193.203 40.3385 192.803 39.8885C192.403 39.4385 192.228 38.8135 192.278 38.0135C192.353 37.2135 192.553 36.3135 192.878 35.3135L196.441 24.5885C196.566 24.2135 196.678 23.776 196.778 23.276C196.878 22.776 196.853 22.351 196.703 22.001C196.578 21.626 196.216 21.4385 195.616 21.4385C194.991 21.4385 194.316 21.726 193.591 22.301C192.891 22.851 192.166 23.651 191.416 24.701C190.666 25.751 189.928 27.0135 189.203 28.4885C188.478 29.9635 187.778 31.6135 187.103 33.4385C186.453 35.2385 185.841 37.1885 185.266 39.2885L186.128 34.4885ZM204.808 29.426H218.346L217.783 31.601H204.246L204.808 29.426ZM235.405 21.4385C234.755 21.4385 234.017 21.901 233.192 22.826C232.392 23.726 231.567 24.9635 230.717 26.5385C229.892 28.0885 229.105 29.8385 228.355 31.7885C227.63 33.7385 227.017 35.7635 226.517 37.8635L227.192 33.8135C228.267 30.5385 229.305 27.9135 230.305 25.9385C231.305 23.9385 232.305 22.4885 233.305 21.5885C234.33 20.6885 235.392 20.2385 236.492 20.2385C237.667 20.2385 238.605 20.676 239.305 21.551C240.03 22.426 240.392 23.751 240.392 25.526C240.392 26.651 240.23 27.8885 239.905 29.2385C239.605 30.5885 239.142 31.926 238.517 33.251C237.917 34.576 237.167 35.801 236.267 36.926C235.392 38.026 234.38 38.9135 233.23 39.5885C232.08 40.2385 230.805 40.5635 229.405 40.5635C228.655 40.5635 227.98 40.3385 227.38 39.8885C226.805 39.4385 226.417 38.7885 226.217 37.9385L226.517 37.1885C226.867 38.1135 227.267 38.7635 227.717 39.1385C228.192 39.5135 228.742 39.701 229.367 39.701C230.217 39.701 231.03 39.376 231.805 38.726C232.58 38.051 233.292 37.1635 233.942 36.0635C234.592 34.9635 235.155 33.751 235.63 32.426C236.13 31.076 236.505 29.7385 236.755 28.4135C237.03 27.0635 237.167 25.826 237.167 24.701C237.167 23.601 237.005 22.7885 236.68 22.2635C236.38 21.7135 235.955 21.4385 235.405 21.4385ZM229.78 15.026C230.38 15.001 230.967 14.951 231.542 14.876C232.142 14.801 232.692 14.676 233.192 14.501L224.942 43.3385C224.642 44.3885 224.792 45.101 225.392 45.476C225.992 45.851 226.855 46.0385 227.98 46.0385L227.755 46.826C227.255 46.801 226.542 46.7635 225.617 46.7135C224.717 46.6885 223.755 46.676 222.73 46.676C221.955 46.676 221.167 46.6885 220.367 46.7135C219.567 46.7635 218.967 46.801 218.567 46.826L218.792 46.0385C219.692 46.0385 220.342 45.8635 220.742 45.5135C221.142 45.1885 221.467 44.5885 221.717 43.7135L229.78 15.026ZM221.98 26.651C222.955 25.701 223.867 24.7635 224.717 23.8385C225.567 22.8885 226.392 21.7635 227.192 20.4635C227.992 19.1635 228.805 17.526 229.63 15.551L229.742 16.151C229.192 17.851 228.53 19.351 227.755 20.651C227.005 21.926 226.18 23.0885 225.28 24.1385C224.38 25.1635 223.417 26.1635 222.392 27.1385L221.98 26.651ZM244.959 31.526C246.359 31.051 247.621 30.5885 248.746 30.1385C249.896 29.6635 250.809 29.1635 251.484 28.6385C252.384 27.9135 253.096 27.0385 253.621 26.0135C254.146 24.9885 254.409 23.8635 254.409 22.6385C254.409 21.9135 254.359 21.451 254.259 21.251C254.159 21.051 254.009 20.951 253.809 20.951C253.184 20.951 252.509 21.226 251.784 21.776C251.059 22.326 250.346 23.0885 249.646 24.0635C248.946 25.0135 248.296 26.101 247.696 27.326C247.121 28.551 246.659 29.8635 246.309 31.2635C245.959 32.6385 245.784 34.0135 245.784 35.3885C245.784 36.6635 246.021 37.5885 246.496 38.1635C246.971 38.7135 247.596 38.9885 248.371 38.9885C249.271 38.9885 250.221 38.7135 251.221 38.1635C252.221 37.6135 253.196 36.6385 254.146 35.2385L254.746 35.5385C254.271 36.3635 253.646 37.1635 252.871 37.9385C252.096 38.7135 251.221 39.351 250.246 39.851C249.296 40.326 248.284 40.5635 247.209 40.5635C246.209 40.5635 245.334 40.3635 244.584 39.9635C243.834 39.5635 243.259 38.976 242.859 38.201C242.459 37.401 242.259 36.426 242.259 35.276C242.259 34.201 242.459 33.001 242.859 31.676C243.259 30.326 243.821 28.9885 244.546 27.6635C245.296 26.3135 246.184 25.076 247.209 23.951C248.234 22.826 249.371 21.926 250.621 21.251C251.871 20.576 253.209 20.2385 254.634 20.2385C255.409 20.2385 256.059 20.451 256.584 20.876C257.134 21.276 257.409 21.8885 257.409 22.7135C257.409 23.7135 257.109 24.651 256.509 25.526C255.934 26.376 255.159 27.1635 254.184 27.8885C253.234 28.5885 252.196 29.2135 251.071 29.7635C249.946 30.3135 248.846 30.7885 247.771 31.1885C246.696 31.5885 245.746 31.9135 244.921 32.1635L244.959 31.526ZM262.423 40.0385H259.16L263.66 23.951C263.91 23.101 263.985 22.501 263.885 22.151C263.81 21.801 263.56 21.626 263.135 21.626C262.585 21.626 262.085 21.9135 261.635 22.4885C261.185 23.0635 260.71 24.051 260.21 25.451L259.723 26.8385H259.01L259.948 24.101C260.323 23.051 260.76 22.251 261.26 21.701C261.785 21.151 262.323 20.776 262.873 20.576C263.448 20.351 263.985 20.2385 264.485 20.2385C265.235 20.2385 265.76 20.401 266.06 20.726C266.385 21.051 266.56 21.476 266.585 22.001C266.635 22.526 266.598 23.101 266.473 23.726C266.373 24.326 266.248 24.9135 266.098 25.4885L262.423 40.0385ZM272.06 21.176C271.485 21.176 270.885 21.451 270.26 22.001C269.66 22.526 269.035 23.301 268.385 24.326C267.76 25.326 267.123 26.5385 266.473 27.9635C265.848 29.3635 265.223 30.926 264.598 32.651C263.998 34.376 263.41 36.2385 262.835 38.2385L263.773 33.4385C264.598 30.9885 265.36 28.926 266.06 27.251C266.785 25.576 267.498 24.226 268.198 23.201C268.898 22.151 269.61 21.401 270.335 20.951C271.085 20.476 271.873 20.2385 272.698 20.2385C273.398 20.2385 273.935 20.4385 274.31 20.8385C274.71 21.2385 274.91 21.751 274.91 22.376C274.91 22.876 274.785 23.3385 274.535 23.7635C274.285 24.1635 273.96 24.4885 273.56 24.7385C273.185 24.9635 272.76 25.076 272.285 25.076C271.86 25.076 271.498 24.9635 271.198 24.7385C270.923 24.4885 270.785 24.151 270.785 23.726C270.785 23.326 270.86 22.976 271.01 22.676C271.16 22.351 271.36 22.076 271.61 21.851C271.86 21.626 272.148 21.451 272.473 21.326C272.423 21.276 272.36 21.2385 272.285 21.2135C272.235 21.1885 272.16 21.176 272.06 21.176ZM276.365 21.5135L276.59 20.7635H287.652L287.427 21.5135H276.365ZM288.44 11.276C287.965 11.276 287.552 11.376 287.202 11.576C286.852 11.776 286.54 12.001 286.265 12.251C285.815 12.676 285.415 13.326 285.065 14.201C284.74 15.051 284.427 16.0385 284.127 17.1635C283.852 18.2885 283.552 19.476 283.227 20.726L276.29 46.5635C275.69 46.5885 275.102 46.6385 274.527 46.7135C273.952 46.7885 273.415 46.9135 272.915 47.0885L279.965 20.726C280.49 18.726 281.04 17.076 281.615 15.776C282.215 14.476 282.94 13.4135 283.79 12.5885C284.365 12.0135 285.065 11.5635 285.89 11.2385C286.74 10.8885 287.602 10.7135 288.477 10.7135C289.627 10.7135 290.502 10.976 291.102 11.501C291.727 12.001 292.04 12.626 292.04 13.376C292.04 13.801 291.927 14.2135 291.702 14.6135C291.477 15.0135 291.177 15.3385 290.802 15.5885C290.427 15.8385 290.002 15.9635 289.527 15.9635C289.052 15.9635 288.677 15.851 288.402 15.626C288.127 15.401 288.002 15.0885 288.027 14.6885C288.027 14.0635 288.227 13.5385 288.627 13.1135C289.027 12.6635 289.54 12.351 290.165 12.176C290.165 11.951 290.002 11.751 289.677 11.576C289.352 11.376 288.94 11.276 288.44 11.276ZM297.301 20.9885C296.501 20.9885 295.726 21.3135 294.976 21.9635C294.251 22.5885 293.576 23.451 292.951 24.551C292.351 25.626 291.813 26.8385 291.338 28.1885C290.888 29.5385 290.538 30.9385 290.288 32.3885C290.038 33.8385 289.913 35.226 289.913 36.551C289.913 37.676 290.088 38.501 290.438 39.026C290.813 39.551 291.351 39.8135 292.051 39.8135C292.851 39.8135 293.613 39.501 294.338 38.876C295.088 38.226 295.776 37.3635 296.401 36.2885C297.026 35.1885 297.563 33.9635 298.013 32.6135C298.463 31.2635 298.813 29.876 299.063 28.451C299.313 27.001 299.438 25.601 299.438 24.251C299.438 23.101 299.263 22.276 298.913 21.776C298.563 21.251 298.026 20.9885 297.301 20.9885ZM286.688 34.676C286.688 33.576 286.838 32.376 287.138 31.076C287.438 29.776 287.888 28.4885 288.488 27.2135C289.088 25.9385 289.813 24.776 290.663 23.726C291.538 22.676 292.551 21.8385 293.701 21.2135C294.851 20.5635 296.126 20.2385 297.526 20.2385C299.076 20.2385 300.313 20.726 301.238 21.701C302.188 22.651 302.663 24.126 302.663 26.126C302.663 27.226 302.513 28.426 302.213 29.726C301.913 31.026 301.463 32.3135 300.863 33.5885C300.263 34.8635 299.526 36.026 298.651 37.076C297.801 38.126 296.801 38.976 295.651 39.626C294.501 40.251 293.226 40.5635 291.826 40.5635C290.276 40.5635 289.026 40.076 288.076 39.101C287.151 38.126 286.688 36.651 286.688 34.676ZM308.749 40.0385H305.486L309.986 23.951C310.236 23.101 310.311 22.501 310.211 22.151C310.136 21.801 309.886 21.626 309.461 21.626C308.911 21.626 308.411 21.9135 307.961 22.4885C307.511 23.0635 307.036 24.051 306.536 25.451L306.049 26.8385H305.336L306.274 24.101C306.649 23.051 307.086 22.251 307.586 21.701C308.111 21.151 308.649 20.776 309.199 20.576C309.774 20.351 310.311 20.2385 310.811 20.2385C311.561 20.2385 312.086 20.401 312.386 20.726C312.711 21.051 312.886 21.476 312.911 22.001C312.961 22.526 312.924 23.101 312.799 23.726C312.699 24.326 312.574 24.9135 312.424 25.4885L308.749 40.0385ZM318.386 21.176C317.811 21.176 317.211 21.451 316.586 22.001C315.986 22.526 315.361 23.301 314.711 24.326C314.086 25.326 313.449 26.5385 312.799 27.9635C312.174 29.3635 311.549 30.926 310.924 32.651C310.324 34.376 309.736 36.2385 309.161 38.2385L310.099 33.4385C310.924 30.9885 311.686 28.926 312.386 27.251C313.111 25.576 313.824 24.226 314.524 23.201C315.224 22.151 315.936 21.401 316.661 20.951C317.411 20.476 318.199 20.2385 319.024 20.2385C319.724 20.2385 320.261 20.4385 320.636 20.8385C321.036 21.2385 321.236 21.751 321.236 22.376C321.236 22.876 321.111 23.3385 320.861 23.7635C320.611 24.1635 320.286 24.4885 319.886 24.7385C319.511 24.9635 319.086 25.076 318.611 25.076C318.186 25.076 317.824 24.9635 317.524 24.7385C317.249 24.4885 317.111 24.151 317.111 23.726C317.111 23.326 317.186 22.976 317.336 22.676C317.486 22.351 317.686 22.076 317.936 21.851C318.186 21.626 318.474 21.451 318.799 21.326C318.749 21.276 318.686 21.2385 318.611 21.2135C318.561 21.1885 318.486 21.176 318.386 21.176ZM324.715 40.0385H321.453L325.953 23.951C326.028 23.726 326.09 23.4385 326.14 23.0885C326.215 22.7135 326.215 22.376 326.14 22.076C326.065 21.776 325.828 21.626 325.428 21.626C324.878 21.626 324.378 21.9135 323.928 22.4885C323.478 23.0635 323.003 24.051 322.503 25.451L322.015 26.8385H321.303L322.24 24.101C322.615 23.051 323.053 22.251 323.553 21.701C324.078 21.151 324.615 20.776 325.165 20.576C325.74 20.351 326.278 20.2385 326.778 20.2385C327.528 20.2385 328.065 20.4135 328.39 20.7635C328.715 21.0885 328.89 21.526 328.915 22.076C328.965 22.601 328.928 23.1635 328.803 23.7635C328.678 24.3635 328.54 24.9385 328.39 25.4885L324.715 40.0385ZM335.328 24.5885C335.503 24.0635 335.615 23.5635 335.665 23.0885C335.74 22.6135 335.703 22.226 335.553 21.926C335.428 21.601 335.128 21.4385 334.653 21.4385C333.953 21.4385 333.178 21.876 332.328 22.751C331.503 23.601 330.653 24.801 329.778 26.351C328.928 27.876 328.103 29.6635 327.303 31.7135C326.503 33.7385 325.79 35.9135 325.165 38.2385L326.403 32.2385C327.553 29.2385 328.628 26.8635 329.628 25.1135C330.628 23.3635 331.628 22.1135 332.628 21.3635C333.653 20.6135 334.74 20.2385 335.89 20.2385C336.69 20.2385 337.265 20.426 337.615 20.801C337.99 21.151 338.215 21.6135 338.29 22.1885C338.365 22.7635 338.34 23.376 338.215 24.026C338.115 24.676 337.99 25.301 337.84 25.901L334.015 40.0385H330.64L335.328 24.5885ZM344.703 24.5885C344.953 23.8135 345.078 23.101 345.078 22.451C345.078 21.776 344.803 21.4385 344.253 21.4385C343.503 21.4385 342.715 21.876 341.89 22.751C341.065 23.626 340.215 24.876 339.34 26.501C338.465 28.101 337.59 29.9885 336.715 32.1635C335.865 34.3135 335.04 36.6885 334.24 39.2885L335.103 34.4885C336.078 31.8885 336.978 29.6885 337.803 27.8885C338.628 26.0635 339.44 24.5885 340.24 23.4635C341.04 22.3385 341.865 21.526 342.715 21.026C343.565 20.501 344.49 20.2385 345.49 20.2385C346.54 20.2385 347.253 20.5385 347.628 21.1385C348.003 21.7385 348.153 22.476 348.078 23.351C348.028 24.201 347.865 25.051 347.59 25.901L343.953 36.851C343.703 37.626 343.615 38.2135 343.69 38.6135C343.765 38.9885 344.053 39.176 344.553 39.176C345.028 39.176 345.49 38.9135 345.94 38.3885C346.415 37.8635 346.915 36.851 347.44 35.351L347.928 33.9635H348.64L347.703 36.701C347.353 37.751 346.915 38.551 346.39 39.101C345.89 39.651 345.353 40.026 344.778 40.226C344.228 40.451 343.69 40.5635 343.165 40.5635C342.54 40.5635 342.04 40.4635 341.665 40.2635C341.315 40.0885 341.04 39.851 340.84 39.551C340.54 39.076 340.44 38.4885 340.54 37.7885C340.64 37.0635 340.84 36.2385 341.14 35.3135L344.703 24.5885ZM355.45 39.3635C356.05 39.3635 356.738 38.9885 357.513 38.2385C358.288 37.4635 359.075 36.426 359.875 35.126C360.675 33.826 361.413 32.351 362.088 30.701C362.763 29.051 363.3 27.3385 363.7 25.5635L363.063 29.6135C362.113 32.2635 361.163 34.401 360.213 36.026C359.263 37.626 358.3 38.7885 357.325 39.5135C356.35 40.2135 355.363 40.5635 354.363 40.5635C353.188 40.5635 352.3 40.1385 351.7 39.2885C351.125 38.4385 350.838 37.351 350.838 36.026C350.838 34.826 351.038 33.526 351.438 32.126C351.838 30.701 352.388 29.2885 353.088 27.8885C353.813 26.4885 354.638 25.2135 355.563 24.0635C356.488 22.9135 357.488 21.9885 358.563 21.2885C359.663 20.5885 360.775 20.2385 361.9 20.2385C362.775 20.2385 363.438 20.676 363.888 21.551C364.363 22.401 364.463 23.601 364.188 25.151L363.775 25.376C363.95 24.051 363.863 22.9885 363.513 22.1885C363.163 21.3635 362.588 20.951 361.788 20.951C361.138 20.951 360.45 21.276 359.725 21.926C359.025 22.551 358.338 23.4135 357.663 24.5135C357.013 25.5885 356.413 26.801 355.863 28.151C355.338 29.501 354.913 30.901 354.588 32.351C354.288 33.776 354.138 35.151 354.138 36.476C354.138 37.551 354.25 38.301 354.475 38.726C354.725 39.151 355.05 39.3635 355.45 39.3635ZM364.9 20.7635C365.5 20.7385 366.1 20.6885 366.7 20.6135C367.3 20.5385 367.85 20.4135 368.35 20.2385L363.663 36.8135C363.613 37.0385 363.538 37.3385 363.438 37.7135C363.363 38.0635 363.363 38.3885 363.438 38.6885C363.538 38.9885 363.8 39.1385 364.225 39.1385C364.725 39.1385 365.213 38.8635 365.688 38.3135C366.163 37.7635 366.638 36.7635 367.113 35.3135L367.563 33.926H368.275L367.338 36.6635C366.988 37.6635 366.563 38.451 366.063 39.026C365.588 39.576 365.088 39.9635 364.563 40.1885C364.038 40.4385 363.525 40.5635 363.025 40.5635C362.05 40.5635 361.363 40.2385 360.963 39.5885C360.638 39.0135 360.55 38.351 360.7 37.601C360.85 36.826 361.025 36.051 361.225 35.276L364.9 20.7635ZM374.704 40.0385H371.442L375.942 23.951C376.042 23.651 376.117 23.326 376.167 22.976C376.242 22.601 376.229 22.2885 376.129 22.0385C376.029 21.7635 375.779 21.626 375.379 21.626C374.829 21.626 374.342 21.901 373.917 22.451C373.492 22.976 373.017 23.976 372.492 25.451L372.004 26.8385H371.292L372.229 24.101C372.779 22.526 373.454 21.4885 374.254 20.9885C375.079 20.4885 375.892 20.2385 376.692 20.2385C377.442 20.2385 377.979 20.401 378.304 20.726C378.654 21.051 378.842 21.476 378.867 22.001C378.917 22.501 378.879 23.0635 378.754 23.6885C378.654 24.2885 378.529 24.8885 378.379 25.4885L374.704 40.0385ZM376.429 32.2385C377.304 29.9885 378.154 28.101 378.979 26.576C379.804 25.051 380.617 23.826 381.417 22.901C382.217 21.951 383.029 21.276 383.854 20.876C384.704 20.451 385.579 20.2385 386.479 20.2385C387.654 20.2385 388.454 20.526 388.879 21.101C389.329 21.651 389.529 22.3635 389.479 23.2385C389.429 24.0885 389.254 24.976 388.954 25.901L385.317 36.851C385.092 37.526 384.992 38.0885 385.017 38.5385C385.067 38.9635 385.367 39.176 385.917 39.176C386.392 39.176 386.854 38.9135 387.304 38.3885C387.779 37.8635 388.279 36.851 388.804 35.351L389.292 33.9635H390.004L389.067 36.701C388.717 37.751 388.279 38.551 387.754 39.101C387.254 39.651 386.717 40.026 386.142 40.226C385.592 40.451 385.054 40.5635 384.529 40.5635C383.929 40.5635 383.429 40.4635 383.029 40.2635C382.654 40.0635 382.367 39.801 382.167 39.476C381.892 39.026 381.804 38.4385 381.904 37.7135C382.004 36.9885 382.204 36.1885 382.504 35.3135L386.067 24.5885C386.192 24.2385 386.292 23.826 386.367 23.351C386.467 22.851 386.454 22.4135 386.329 22.0385C386.204 21.6385 385.842 21.4385 385.242 21.4385C384.642 21.4385 384.004 21.701 383.329 22.226C382.654 22.751 381.954 23.501 381.229 24.476C380.504 25.426 379.792 26.576 379.092 27.926C378.392 29.251 377.717 30.726 377.067 32.351C376.442 33.951 375.867 35.6635 375.342 37.4885L376.429 32.2385ZM403.995 20.9885C403.045 20.9885 402.095 21.376 401.145 22.151C400.22 22.926 399.37 23.9885 398.595 25.3385C397.82 26.6885 397.195 28.226 396.72 29.951C396.27 31.676 396.045 33.4885 396.045 35.3885C396.045 36.6635 396.282 37.5885 396.757 38.1635C397.257 38.7135 397.895 38.9885 398.67 38.9885C399.57 38.9885 400.495 38.7135 401.445 38.1635C402.395 37.6135 403.345 36.6385 404.295 35.2385L405.045 35.5385C404.57 36.3635 403.945 37.1635 403.17 37.9385C402.395 38.7135 401.52 39.351 400.545 39.851C399.595 40.326 398.582 40.5635 397.507 40.5635C396.007 40.5635 394.807 40.101 393.907 39.176C393.007 38.251 392.557 36.876 392.557 35.051C392.557 33.901 392.72 32.6635 393.045 31.3385C393.395 29.9885 393.882 28.6635 394.507 27.3635C395.157 26.0385 395.945 24.851 396.87 23.801C397.795 22.726 398.845 21.8635 400.02 21.2135C401.195 20.5635 402.482 20.2385 403.882 20.2385C404.982 20.2385 405.932 20.526 406.732 21.101C407.532 21.651 407.932 22.426 407.932 23.426C407.932 23.901 407.82 24.376 407.595 24.851C407.395 25.301 407.095 25.676 406.695 25.976C406.295 26.276 405.82 26.426 405.27 26.426C404.745 26.426 404.357 26.2885 404.107 26.0135C403.857 25.7135 403.732 25.3635 403.732 24.9635C403.732 24.2385 404.02 23.626 404.595 23.126C405.17 22.601 405.82 22.276 406.545 22.151C406.295 21.801 405.97 21.526 405.57 21.326C405.17 21.101 404.645 20.9885 403.995 20.9885ZM411.219 31.526C412.619 31.051 413.881 30.5885 415.006 30.1385C416.156 29.6635 417.069 29.1635 417.744 28.6385C418.644 27.9135 419.356 27.0385 419.881 26.0135C420.406 24.9885 420.669 23.8635 420.669 22.6385C420.669 21.9135 420.619 21.451 420.519 21.251C420.419 21.051 420.269 20.951 420.069 20.951C419.444 20.951 418.769 21.226 418.044 21.776C417.319 22.326 416.606 23.0885 415.906 24.0635C415.206 25.0135 414.556 26.101 413.956 27.326C413.381 28.551 412.919 29.8635 412.569 31.2635C412.219 32.6385 412.044 34.0135 412.044 35.3885C412.044 36.6635 412.281 37.5885 412.756 38.1635C413.231 38.7135 413.856 38.9885 414.631 38.9885C415.531 38.9885 416.481 38.7135 417.481 38.1635C418.481 37.6135 419.456 36.6385 420.406 35.2385L421.006 35.5385C420.531 36.3635 419.906 37.1635 419.131 37.9385C418.356 38.7135 417.481 39.351 416.506 39.851C415.556 40.326 414.544 40.5635 413.469 40.5635C412.469 40.5635 411.594 40.3635 410.844 39.9635C410.094 39.5635 409.519 38.976 409.119 38.201C408.719 37.401 408.519 36.426 408.519 35.276C408.519 34.201 408.719 33.001 409.119 31.676C409.519 30.326 410.081 28.9885 410.806 27.6635C411.556 26.3135 412.444 25.076 413.469 23.951C414.494 22.826 415.631 21.926 416.881 21.251C418.131 20.576 419.469 20.2385 420.894 20.2385C421.669 20.2385 422.319 20.451 422.844 20.876C423.394 21.276 423.669 21.8885 423.669 22.7135C423.669 23.7135 423.369 24.651 422.769 25.526C422.194 26.376 421.419 27.1635 420.444 27.8885C419.494 28.5885 418.456 29.2135 417.331 29.7635C416.206 30.3135 415.106 30.7885 414.031 31.1885C412.956 31.5885 412.006 31.9135 411.181 32.1635L411.219 31.526Z" fill="#3E41FF"/>
<path d="M459.831 37.451C459.006 38.351 458.081 39.101 457.056 39.701C456.056 40.276 454.981 40.5635 453.831 40.5635C452.681 40.5635 451.768 40.3635 451.093 39.9635C450.418 39.5635 449.931 39.0385 449.631 38.3885C449.331 37.7135 449.181 37.0135 449.181 36.2885C449.181 35.0635 449.531 33.801 450.231 32.501C450.931 31.201 451.843 29.9135 452.968 28.6385C454.118 27.3385 455.368 26.101 456.718 24.926C458.068 23.751 459.381 22.701 460.656 21.776L461.256 21.6635C460.856 21.8135 460.431 22.026 459.981 22.301C459.531 22.551 459.093 22.8135 458.668 23.0885C458.243 23.3385 457.831 23.5635 457.431 23.7635C457.031 23.9385 456.656 24.026 456.306 24.026C455.831 24.026 455.418 23.876 455.068 23.576C454.743 23.251 454.368 23.0885 453.943 23.0885C453.543 23.0885 453.206 23.2635 452.931 23.6135C452.656 23.9385 452.381 24.5385 452.106 25.4135L451.656 26.801H450.943L451.806 24.0635C452.306 22.5885 452.843 21.5885 453.418 21.0635C454.018 20.5135 454.643 20.2385 455.293 20.2385C455.768 20.2385 456.168 20.3635 456.493 20.6135C456.843 20.8635 457.181 21.1135 457.506 21.3635C457.856 21.5885 458.268 21.701 458.743 21.701C459.343 21.701 459.881 21.6135 460.356 21.4385C460.831 21.2385 461.293 20.9385 461.743 20.5385L462.268 19.826L463.056 20.201C461.756 21.276 460.493 22.426 459.268 23.651C458.068 24.876 456.981 26.1635 456.006 27.5135C455.056 28.8385 454.293 30.226 453.718 31.676C453.143 33.101 452.856 34.5635 452.856 36.0635C452.856 37.3135 453.043 38.1885 453.418 38.6885C453.793 39.1885 454.293 39.4385 454.918 39.4385C455.668 39.4385 456.456 39.2135 457.281 38.7635C458.106 38.2885 458.906 37.6135 459.681 36.7385L459.831 37.451ZM463.993 39.476C465.218 39.476 466.281 39.126 467.181 38.426C468.106 37.726 468.868 36.826 469.468 35.726C470.068 34.601 470.518 33.401 470.818 32.126C471.143 30.826 471.331 29.5885 471.381 28.4135C471.431 27.2135 471.343 26.201 471.118 25.376C470.643 25.276 470.131 25.101 469.581 24.851C469.031 24.576 468.556 24.2135 468.156 23.7635C467.756 23.2885 467.556 22.7135 467.556 22.0385C467.556 21.3885 467.731 20.926 468.081 20.651C468.431 20.376 468.781 20.2385 469.131 20.2385C469.506 20.2385 469.831 20.351 470.106 20.576C470.406 20.801 470.668 21.1135 470.893 21.5135C471.118 21.9135 471.318 22.3885 471.493 22.9385C471.668 23.4635 471.806 24.0385 471.906 24.6635C472.156 25.7885 472.256 27.051 472.206 28.451C472.156 29.851 471.943 31.2635 471.568 32.6885C471.193 34.0885 470.631 35.3885 469.881 36.5885C469.131 37.7885 468.181 38.751 467.031 39.476C465.906 40.201 464.556 40.5635 462.981 40.5635C462.181 40.5635 461.443 40.4135 460.768 40.1135C460.093 39.8135 459.543 39.2885 459.118 38.5385C458.718 37.7885 458.518 36.751 458.518 35.426C458.518 34.326 458.693 33.251 459.043 32.201C459.418 31.151 459.893 30.201 460.468 29.351C461.043 28.501 461.643 27.826 462.268 27.326C462.893 26.826 463.468 26.576 463.993 26.576C464.368 26.576 464.643 26.7135 464.818 26.9885C465.018 27.2635 465.143 27.6135 465.193 28.0385C465.268 28.4385 465.306 28.826 465.306 29.201C465.306 30.551 464.931 31.926 464.181 33.326C463.456 34.726 462.318 36.0135 460.768 37.1885L460.581 36.5135C461.756 35.5885 462.693 34.4635 463.393 33.1385C464.093 31.8135 464.443 30.4885 464.443 29.1635C464.443 28.6635 464.393 28.251 464.293 27.926C464.193 27.576 464.006 27.401 463.731 27.401C463.331 27.401 462.881 27.726 462.381 28.376C461.881 29.001 461.443 29.8135 461.068 30.8135C460.718 31.7885 460.543 32.826 460.543 33.926C460.543 34.826 460.643 35.701 460.843 36.551C461.068 37.401 461.431 38.101 461.931 38.651C462.456 39.201 463.143 39.476 463.993 39.476ZM477.515 31.526C478.915 31.051 480.177 30.5885 481.302 30.1385C482.452 29.6635 483.365 29.1635 484.04 28.6385C484.94 27.9135 485.652 27.0385 486.177 26.0135C486.702 24.9885 486.965 23.8635 486.965 22.6385C486.965 21.9135 486.915 21.451 486.815 21.251C486.715 21.051 486.565 20.951 486.365 20.951C485.74 20.951 485.065 21.226 484.34 21.776C483.615 22.326 482.902 23.0885 482.202 24.0635C481.502 25.0135 480.852 26.101 480.252 27.326C479.677 28.551 479.215 29.8635 478.865 31.2635C478.515 32.6385 478.34 34.0135 478.34 35.3885C478.34 36.6635 478.577 37.5885 479.052 38.1635C479.527 38.7135 480.152 38.9885 480.927 38.9885C481.827 38.9885 482.777 38.7135 483.777 38.1635C484.777 37.6135 485.752 36.6385 486.702 35.2385L487.302 35.5385C486.827 36.3635 486.202 37.1635 485.427 37.9385C484.652 38.7135 483.777 39.351 482.802 39.851C481.852 40.326 480.84 40.5635 479.765 40.5635C478.765 40.5635 477.89 40.3635 477.14 39.9635C476.39 39.5635 475.815 38.976 475.415 38.201C475.015 37.401 474.815 36.426 474.815 35.276C474.815 34.201 475.015 33.001 475.415 31.676C475.815 30.326 476.377 28.9885 477.102 27.6635C477.852 26.3135 478.74 25.076 479.765 23.951C480.79 22.826 481.927 21.926 483.177 21.251C484.427 20.576 485.765 20.2385 487.19 20.2385C487.965 20.2385 488.615 20.451 489.14 20.876C489.69 21.276 489.965 21.8885 489.965 22.7135C489.965 23.7135 489.665 24.651 489.065 25.526C488.49 26.376 487.715 27.1635 486.74 27.8885C485.79 28.5885 484.752 29.2135 483.627 29.7635C482.502 30.3135 481.402 30.7885 480.327 31.1885C479.252 31.5885 478.302 31.9135 477.477 32.1635L477.515 31.526ZM502.929 21.4385C502.279 21.4385 501.541 21.901 500.716 22.826C499.916 23.726 499.091 24.9635 498.241 26.5385C497.416 28.0885 496.629 29.8385 495.879 31.7885C495.154 33.7385 494.541 35.7635 494.041 37.8635L494.679 33.8135C495.754 30.5385 496.791 27.9135 497.791 25.9385C498.816 23.9385 499.829 22.4885 500.829 21.5885C501.854 20.6885 502.916 20.2385 504.016 20.2385C505.191 20.2385 506.129 20.676 506.829 21.551C507.554 22.426 507.916 23.751 507.916 25.526C507.916 26.651 507.754 27.8885 507.429 29.2385C507.129 30.5885 506.666 31.926 506.041 33.251C505.441 34.576 504.691 35.801 503.791 36.926C502.916 38.026 501.904 38.9135 500.754 39.5885C499.604 40.2385 498.329 40.5635 496.929 40.5635C496.179 40.5635 495.504 40.3385 494.904 39.8885C494.329 39.4385 493.941 38.7885 493.741 37.9385L494.041 37.1885C494.391 38.1135 494.791 38.7635 495.241 39.1385C495.716 39.5135 496.266 39.701 496.891 39.701C497.741 39.701 498.554 39.376 499.329 38.726C500.104 38.051 500.816 37.1635 501.466 36.0635C502.116 34.9635 502.679 33.751 503.154 32.426C503.654 31.076 504.029 29.7385 504.279 28.4135C504.554 27.0635 504.691 25.826 504.691 24.701C504.691 23.601 504.529 22.7885 504.204 22.2635C503.904 21.7135 503.479 21.4385 502.929 21.4385ZM494.191 37.7135C493.591 38.1885 492.991 38.676 492.391 39.176C491.791 39.651 491.191 40.1385 490.591 40.6385L490.029 40.376C490.204 40.026 490.341 39.676 490.441 39.326C490.566 38.951 490.666 38.576 490.741 38.201L497.304 15.026C497.504 14.176 497.466 13.551 497.191 13.151C496.916 12.751 496.166 12.551 494.941 12.551L495.129 11.7635C496.504 11.7385 497.716 11.601 498.766 11.351C499.816 11.076 500.804 10.701 501.729 10.226L494.191 37.7135Z" fill="#3E41FF"/>
<path d="M535.963 39.476C536.163 39.576 536.376 39.6635 536.601 39.7385C536.851 39.7885 537.213 39.8135 537.688 39.8135C538.788 39.8135 539.688 39.4885 540.388 38.8385C541.113 38.1635 541.476 37.201 541.476 35.951C541.476 35.176 541.326 34.4135 541.026 33.6635C540.751 32.8885 540.251 32.001 539.526 31.001C538.951 30.201 538.401 29.3885 537.876 28.5635C537.351 27.7135 537.088 26.7135 537.088 25.5635C537.088 24.4885 537.351 23.5635 537.876 22.7885C538.401 21.9885 539.101 21.3635 539.976 20.9135C540.876 20.4635 541.851 20.2385 542.901 20.2385C543.626 20.2385 544.338 20.326 545.038 20.501C545.738 20.676 546.313 21.001 546.763 21.476C547.238 21.926 547.476 22.601 547.476 23.501C547.476 23.726 547.413 24.001 547.288 24.326C547.188 24.626 547.013 24.8885 546.763 25.1135C546.513 25.3385 546.176 25.451 545.751 25.451C545.351 25.451 545.001 25.3135 544.701 25.0385C544.401 24.7385 544.251 24.351 544.251 23.876C544.251 23.426 544.338 23.001 544.513 22.601C544.713 22.176 544.976 21.7635 545.301 21.3635C544.826 21.0635 544.201 20.9135 543.426 20.9135C542.501 20.9135 541.726 21.226 541.101 21.851C540.476 22.476 540.163 23.351 540.163 24.476C540.163 25.051 540.251 25.5635 540.426 26.0135C540.601 26.4385 540.851 26.8885 541.176 27.3635C541.526 27.8385 541.938 28.4385 542.413 29.1635C543.038 30.1135 543.563 31.026 543.988 31.901C544.413 32.776 544.626 33.701 544.626 34.676C544.626 35.826 544.326 36.851 543.726 37.751C543.151 38.626 542.376 39.3135 541.401 39.8135C540.426 40.3135 539.351 40.5635 538.176 40.5635C537.326 40.5635 536.513 40.4385 535.738 40.1885C534.963 39.9385 534.326 39.551 533.826 39.026C533.351 38.476 533.113 37.751 533.113 36.851C533.113 36.501 533.226 36.1385 533.451 35.7635C533.651 35.3635 534.026 35.1635 534.576 35.1635C535.176 35.1635 535.601 35.4135 535.851 35.9135C536.101 36.3885 536.226 36.926 536.226 37.526C536.226 37.926 536.188 38.2885 536.113 38.6135C536.063 38.9135 536.013 39.201 535.963 39.476ZM559.433 20.9885C558.633 20.9885 557.858 21.3135 557.108 21.9635C556.383 22.5885 555.708 23.451 555.083 24.551C554.483 25.626 553.946 26.8385 553.471 28.1885C553.021 29.5385 552.671 30.9385 552.421 32.3885C552.171 33.8385 552.046 35.226 552.046 36.551C552.046 37.676 552.221 38.501 552.571 39.026C552.946 39.551 553.483 39.8135 554.183 39.8135C554.983 39.8135 555.746 39.501 556.471 38.876C557.221 38.226 557.908 37.3635 558.533 36.2885C559.158 35.1885 559.696 33.9635 560.146 32.6135C560.596 31.2635 560.946 29.876 561.196 28.451C561.446 27.001 561.571 25.601 561.571 24.251C561.571 23.101 561.396 22.276 561.046 21.776C560.696 21.251 560.158 20.9885 559.433 20.9885ZM548.821 34.676C548.821 33.576 548.971 32.376 549.271 31.076C549.571 29.776 550.021 28.4885 550.621 27.2135C551.221 25.9385 551.946 24.776 552.796 23.726C553.671 22.676 554.683 21.8385 555.833 21.2135C556.983 20.5635 558.258 20.2385 559.658 20.2385C561.208 20.2385 562.446 20.726 563.371 21.701C564.321 22.651 564.796 24.126 564.796 26.126C564.796 27.226 564.646 28.426 564.346 29.726C564.046 31.026 563.596 32.3135 562.996 33.5885C562.396 34.8635 561.658 36.026 560.783 37.076C559.933 38.126 558.933 38.976 557.783 39.626C556.633 40.251 555.358 40.5635 553.958 40.5635C552.408 40.5635 551.158 40.076 550.208 39.101C549.283 38.126 548.821 36.651 548.821 34.676ZM570.169 36.851C569.969 37.576 569.906 38.151 569.981 38.576C570.056 38.976 570.331 39.176 570.806 39.176C571.306 39.176 571.769 38.901 572.194 38.351C572.644 37.776 573.119 36.776 573.619 35.351L574.106 33.9635H574.819L573.881 36.701C573.556 37.651 573.156 38.4135 572.681 38.9885C572.231 39.5385 571.731 39.9385 571.181 40.1885C570.631 40.4385 570.031 40.5635 569.381 40.5635C568.556 40.5635 567.944 40.401 567.544 40.076C567.169 39.776 566.931 39.3635 566.831 38.8385C566.756 38.3135 566.769 37.751 566.869 37.151C566.994 36.526 567.144 35.9135 567.319 35.3135L573.431 15.026C573.681 14.176 573.656 13.551 573.356 13.151C573.056 12.751 572.294 12.551 571.069 12.551L571.331 11.7635C572.706 11.7385 573.919 11.601 574.969 11.351C576.019 11.076 577.031 10.701 578.006 10.226L570.169 36.851ZM591.632 27.0635C590.732 29.5635 589.869 31.676 589.044 33.401C588.219 35.126 587.394 36.5135 586.569 37.5635C585.769 38.6135 584.944 39.376 584.094 39.851C583.269 40.326 582.407 40.5635 581.507 40.5635C580.407 40.5635 579.607 40.3135 579.107 39.8135C578.607 39.3135 578.357 38.6385 578.357 37.7885C578.357 36.9385 578.532 35.976 578.882 34.901L582.519 23.951C582.769 23.201 582.857 22.626 582.782 22.226C582.707 21.826 582.419 21.626 581.919 21.626C581.444 21.626 580.969 21.8885 580.494 22.4135C580.044 22.9385 579.557 23.951 579.032 25.451L578.544 26.8385H577.832L578.769 24.101C579.144 23.051 579.582 22.251 580.082 21.701C580.607 21.151 581.144 20.776 581.694 20.576C582.269 20.351 582.807 20.2385 583.307 20.2385C584.407 20.2385 585.132 20.501 585.482 21.026C585.857 21.526 585.994 22.176 585.894 22.976C585.819 23.776 585.632 24.6135 585.332 25.4885L581.769 36.2135C581.069 38.3135 581.344 39.3635 582.594 39.3635C583.194 39.3635 583.832 39.101 584.507 38.576C585.182 38.026 585.869 37.251 586.569 36.251C587.269 35.226 587.957 34.0135 588.632 32.6135C589.332 31.1885 589.994 29.6135 590.619 27.8885C591.269 26.1385 591.857 24.2635 592.382 22.2635L591.632 27.0635ZM591.519 36.851C591.344 37.526 591.257 38.0885 591.257 38.5385C591.282 38.9635 591.544 39.176 592.044 39.176C592.594 39.176 593.094 38.8885 593.544 38.3135C594.019 37.7135 594.494 36.726 594.969 35.351L595.457 33.9635H596.169L595.232 36.701C594.882 37.751 594.444 38.551 593.919 39.101C593.419 39.651 592.882 40.026 592.307 40.226C591.757 40.451 591.219 40.5635 590.694 40.5635C590.294 40.5635 589.919 40.476 589.569 40.301C589.219 40.126 588.957 39.876 588.782 39.551C588.582 39.126 588.507 38.5885 588.557 37.9385C588.632 37.2885 588.807 36.4135 589.082 35.3135L592.757 20.7635C593.382 20.7385 593.982 20.6885 594.557 20.6135C595.157 20.5385 595.694 20.4135 596.169 20.2385L591.519 36.851ZM612.083 20.7635L611.971 21.5135H600.308L600.496 20.7635H612.083ZM602.558 36.851C602.333 37.676 602.383 38.276 602.708 38.651C603.058 39.001 603.508 39.176 604.058 39.176C604.608 39.176 605.158 38.9385 605.708 38.4635C606.283 37.9885 606.846 36.976 607.396 35.426L607.921 33.9635H608.633L607.846 36.326C607.296 37.951 606.583 39.0635 605.708 39.6635C604.858 40.2635 603.858 40.5635 602.708 40.5635C601.683 40.5635 600.896 40.351 600.346 39.926C599.821 39.476 599.508 38.851 599.408 38.051C599.308 37.251 599.408 36.3385 599.708 35.3135L605.521 15.0635C606.121 15.0385 606.708 14.9885 607.283 14.9135C607.883 14.8385 608.421 14.7135 608.896 14.5385L602.558 36.851ZM617.706 13.9385C617.831 13.2885 618.156 12.726 618.681 12.251C619.231 11.776 619.819 11.5385 620.444 11.5385C621.094 11.5385 621.594 11.776 621.944 12.251C622.319 12.726 622.444 13.2885 622.319 13.9385C622.194 14.5885 621.856 15.151 621.306 15.626C620.781 16.101 620.194 16.3385 619.544 16.3385C618.919 16.3385 618.419 16.101 618.044 15.626C617.694 15.151 617.581 14.5885 617.706 13.9385ZM616.544 23.951C617.069 22.401 616.894 21.626 616.019 21.626C615.444 21.626 614.931 21.9385 614.481 22.5635C614.031 23.1885 613.556 24.151 613.056 25.451L612.531 26.8385H611.819L612.794 24.101C613.169 23.051 613.619 22.251 614.144 21.701C614.669 21.151 615.219 20.776 615.794 20.576C616.394 20.351 616.944 20.2385 617.444 20.2385C618.244 20.2385 618.831 20.401 619.206 20.726C619.581 21.051 619.806 21.476 619.881 22.001C619.956 22.526 619.931 23.101 619.806 23.726C619.681 24.326 619.519 24.9135 619.319 25.4885L615.306 36.851C615.056 37.576 614.969 38.151 615.044 38.576C615.144 38.976 615.431 39.176 615.906 39.176C616.406 39.176 616.881 38.901 617.331 38.351C617.781 37.801 618.281 36.801 618.831 35.351L619.356 33.9635H620.069L619.094 36.701C618.744 37.676 618.319 38.451 617.819 39.026C617.319 39.576 616.781 39.9635 616.206 40.1885C615.631 40.4385 615.056 40.5635 614.481 40.5635C613.406 40.5635 612.681 40.3135 612.306 39.8135C611.931 39.3135 611.794 38.6635 611.894 37.8635C611.994 37.0635 612.206 36.2135 612.531 35.3135L616.544 23.951ZM633.335 20.9885C632.535 20.9885 631.76 21.3135 631.01 21.9635C630.285 22.5885 629.61 23.451 628.985 24.551C628.385 25.626 627.847 26.8385 627.372 28.1885C626.922 29.5385 626.572 30.9385 626.322 32.3885C626.072 33.8385 625.947 35.226 625.947 36.551C625.947 37.676 626.122 38.501 626.472 39.026C626.847 39.551 627.385 39.8135 628.085 39.8135C628.885 39.8135 629.647 39.501 630.372 38.876C631.122 38.226 631.81 37.3635 632.435 36.2885C633.06 35.1885 633.597 33.9635 634.047 32.6135C634.497 31.2635 634.847 29.876 635.097 28.451C635.347 27.001 635.472 25.601 635.472 24.251C635.472 23.101 635.297 22.276 634.947 21.776C634.597 21.251 634.06 20.9885 633.335 20.9885ZM622.722 34.676C622.722 33.576 622.872 32.376 623.172 31.076C623.472 29.776 623.922 28.4885 624.522 27.2135C625.122 25.9385 625.847 24.776 626.697 23.726C627.572 22.676 628.585 21.8385 629.735 21.2135C630.885 20.5635 632.16 20.2385 633.56 20.2385C635.11 20.2385 636.347 20.726 637.272 21.701C638.222 22.651 638.697 24.126 638.697 26.126C638.697 27.226 638.547 28.426 638.247 29.726C637.947 31.026 637.497 32.3135 636.897 33.5885C636.297 34.8635 635.56 36.026 634.685 37.076C633.835 38.126 632.835 38.976 631.685 39.626C630.535 40.251 629.26 40.5635 627.86 40.5635C626.31 40.5635 625.06 40.076 624.11 39.101C623.185 38.126 622.722 36.651 622.722 34.676ZM644.82 40.0385H641.558L646.058 23.951C646.158 23.651 646.233 23.326 646.283 22.976C646.358 22.601 646.345 22.2885 646.245 22.0385C646.145 21.7635 645.895 21.626 645.495 21.626C644.945 21.626 644.458 21.901 644.033 22.451C643.608 22.976 643.133 23.976 642.608 25.451L642.12 26.8385H641.408L642.345 24.101C642.895 22.526 643.57 21.4885 644.37 20.9885C645.195 20.4885 646.008 20.2385 646.808 20.2385C647.558 20.2385 648.095 20.401 648.42 20.726C648.77 21.051 648.958 21.476 648.983 22.001C649.033 22.501 648.995 23.0635 648.87 23.6885C648.77 24.2885 648.645 24.8885 648.495 25.4885L644.82 40.0385ZM646.545 32.2385C647.42 29.9885 648.27 28.101 649.095 26.576C649.92 25.051 650.733 23.826 651.533 22.901C652.333 21.951 653.145 21.276 653.97 20.876C654.82 20.451 655.695 20.2385 656.595 20.2385C657.77 20.2385 658.57 20.526 658.995 21.101C659.445 21.651 659.645 22.3635 659.595 23.2385C659.545 24.0885 659.37 24.976 659.07 25.901L655.433 36.851C655.208 37.526 655.108 38.0885 655.133 38.5385C655.183 38.9635 655.483 39.176 656.033 39.176C656.508 39.176 656.97 38.9135 657.42 38.3885C657.895 37.8635 658.395 36.851 658.92 35.351L659.408 33.9635H660.12L659.183 36.701C658.833 37.751 658.395 38.551 657.87 39.101C657.37 39.651 656.833 40.026 656.258 40.226C655.708 40.451 655.17 40.5635 654.645 40.5635C654.045 40.5635 653.545 40.4635 653.145 40.2635C652.77 40.0635 652.483 39.801 652.283 39.476C652.008 39.026 651.92 38.4385 652.02 37.7135C652.12 36.9885 652.32 36.1885 652.62 35.3135L656.183 24.5885C656.308 24.2385 656.408 23.826 656.483 23.351C656.583 22.851 656.57 22.4135 656.445 22.0385C656.32 21.6385 655.958 21.4385 655.358 21.4385C654.758 21.4385 654.12 21.701 653.445 22.226C652.77 22.751 652.07 23.501 651.345 24.476C650.62 25.426 649.908 26.576 649.208 27.926C648.508 29.251 647.833 30.726 647.183 32.351C646.558 33.951 645.983 35.6635 645.458 37.4885L646.545 32.2385ZM664.211 39.476C664.411 39.576 664.623 39.6635 664.848 39.7385C665.098 39.7885 665.461 39.8135 665.936 39.8135C667.036 39.8135 667.936 39.4885 668.636 38.8385C669.361 38.1635 669.723 37.201 669.723 35.951C669.723 35.176 669.573 34.4135 669.273 33.6635C668.998 32.8885 668.498 32.001 667.773 31.001C667.198 30.201 666.648 29.3885 666.123 28.5635C665.598 27.7135 665.336 26.7135 665.336 25.5635C665.336 24.4885 665.598 23.5635 666.123 22.7885C666.648 21.9885 667.348 21.3635 668.223 20.9135C669.123 20.4635 670.098 20.2385 671.148 20.2385C671.873 20.2385 672.586 20.326 673.286 20.501C673.986 20.676 674.561 21.001 675.011 21.476C675.486 21.926 675.723 22.601 675.723 23.501C675.723 23.726 675.661 24.001 675.536 24.326C675.436 24.626 675.261 24.8885 675.011 25.1135C674.761 25.3385 674.423 25.451 673.998 25.451C673.598 25.451 673.248 25.3135 672.948 25.0385C672.648 24.7385 672.498 24.351 672.498 23.876C672.498 23.426 672.586 23.001 672.761 22.601C672.961 22.176 673.223 21.7635 673.548 21.3635C673.073 21.0635 672.448 20.9135 671.673 20.9135C670.748 20.9135 669.973 21.226 669.348 21.851C668.723 22.476 668.411 23.351 668.411 24.476C668.411 25.051 668.498 25.5635 668.673 26.0135C668.848 26.4385 669.098 26.8885 669.423 27.3635C669.773 27.8385 670.186 28.4385 670.661 29.1635C671.286 30.1135 671.811 31.026 672.236 31.901C672.661 32.776 672.873 33.701 672.873 34.676C672.873 35.826 672.573 36.851 671.973 37.751C671.398 38.626 670.623 39.3135 669.648 39.8135C668.673 40.3135 667.598 40.5635 666.423 40.5635C665.573 40.5635 664.761 40.4385 663.986 40.1885C663.211 39.9385 662.573 39.551 662.073 39.026C661.598 38.476 661.361 37.751 661.361 36.851C661.361 36.501 661.473 36.1385 661.698 35.7635C661.898 35.3635 662.273 35.1635 662.823 35.1635C663.423 35.1635 663.848 35.4135 664.098 35.9135C664.348 36.3885 664.473 36.926 664.473 37.526C664.473 37.926 664.436 38.2885 664.361 38.6135C664.311 38.9135 664.261 39.201 664.211 39.476Z" fill="#3E41FF"/>
<rect x="433" y="2.92308" width="91" height="46.0769" fill="#3E41FF" fill-opacity="0.1"/>
<rect x="433" y="2.92308" width="91" height="46.0769" stroke="#3E41FF" stroke-width="2" stroke-dasharray="8 8"/>
</svg>
