<svg width="141" height="95" viewBox="0 0 141 95" fill="none" xmlns="http://www.w3.org/2000/svg">
<path d="M51.8647 30.5C51.628 27.5407 50.5182 25.2325 48.5355 23.5753C46.5824 21.9181 43.6083 21.0895 39.6133 21.0895C37.0683 21.0895 34.982 21.4002 33.3544 22.0217C31.7564 22.6135 30.5727 23.4273 29.8033 24.4631C29.0339 25.4988 28.6344 26.6825 28.6048 28.0142C28.5456 29.1091 28.7379 30.1005 29.1818 30.9883C29.6553 31.8465 30.3951 32.6307 31.4013 33.3409C32.4074 34.0216 33.6947 34.643 35.2631 35.2053C36.8316 35.7675 38.6959 36.2706 40.8562 36.7145L48.3136 38.3125C53.3443 39.3779 57.6501 40.7835 61.2308 42.5295C64.8116 44.2755 67.7412 46.3322 70.0199 48.6996C72.2985 51.0374 73.9705 53.6712 75.0359 56.6009C76.1308 59.5306 76.6931 62.7266 76.7227 66.1889C76.6931 72.1667 75.1986 77.227 72.2393 81.37C69.2801 85.513 65.0483 88.6647 59.544 90.8249C54.0694 92.9852 47.485 94.0654 39.7908 94.0654C31.8896 94.0654 24.9944 92.8964 19.1055 90.5586C13.2461 88.2208 8.6888 84.6253 5.43359 79.772C2.20798 74.8892 0.580374 68.6451 0.550781 61.0398H23.9883C24.1362 63.8215 24.8317 66.1593 26.0746 68.0533C27.3175 69.9472 29.0634 71.3825 31.3125 72.359C33.5911 73.3356 36.2989 73.8239 39.4357 73.8239C42.0695 73.8239 44.2741 73.4984 46.0497 72.8473C47.8253 72.1963 49.1718 71.2937 50.0891 70.1396C51.0065 68.9855 51.48 67.6686 51.5096 66.1889C51.48 64.7981 51.0213 63.5848 50.1335 62.549C49.2753 61.4837 47.8549 60.5367 45.8722 59.7081C43.8894 58.8499 41.2113 58.0509 37.8377 57.3111L28.7823 55.358C20.7331 53.612 14.3854 50.6971 9.73935 46.6133C5.12287 42.4999 2.82943 36.8921 2.85902 29.7898C2.82943 24.0192 4.36825 18.9736 7.4755 14.6531C10.6123 10.3029 14.9477 6.91455 20.4815 4.48794C26.045 2.06133 32.4222 0.848022 39.6133 0.848022C46.9523 0.848022 53.3 2.07612 58.6562 4.53233C64.0125 6.98853 68.1407 10.4509 71.0408 14.9194C73.9705 19.3583 75.4502 24.5519 75.4798 30.5H51.8647Z" fill="#3E41FF"/>
<path d="M75.4798 93V2.09092H140.998V21.9773H100.16V37.6023H137.625V57.4887H100.16V73.1136H140.821V93H75.4798Z" fill="#3E41FF"/>
<path d="M42 38H114V57H42V38Z" fill="#3E41FF"/>
<path d="M68 42H82V66H68V42Z" fill="#3E41FF"/>
</svg>
